<svg xmlns="http://www.w3.org/2000/svg" xmlns:xlink="http://www.w3.org/1999/xlink" viewBox="0 0 85.19 512.95"><defs><style>.cls-1{fill:#2c5074;}.cls-2{fill:none;}.cls-3{fill:#d17078;}.cls-4{clip-path:url(#clip-path);}.cls-5{opacity:0.33;}.cls-6{opacity:0;}.cls-7{opacity:0.02;}.cls-8{opacity:0.04;}.cls-9{opacity:0.06;}.cls-10{opacity:0.08;}.cls-11{opacity:0.1;}.cls-12{opacity:0.12;}.cls-13{opacity:0.14;}.cls-14{opacity:0.16;}.cls-15{opacity:0.18;}.cls-16{opacity:0.2;}.cls-17{opacity:0.22;}.cls-18{opacity:0.24;}.cls-19{opacity:0.25;}.cls-20{opacity:0.27;}.cls-21{opacity:0.29;}.cls-22{opacity:0.31;}.cls-23{opacity:0.33;}.cls-24{opacity:0.35;}.cls-25{opacity:0.37;}.cls-26{opacity:0.39;}.cls-27{opacity:0.41;}.cls-28{opacity:0.43;}.cls-29{opacity:0.45;}.cls-30{opacity:0.47;}.cls-31{opacity:0.49;}.cls-32{opacity:0.51;}.cls-33{opacity:0.53;}.cls-34{opacity:0.55;}.cls-35{opacity:0.57;}.cls-36{opacity:0.59;}.cls-37{opacity:0.61;}.cls-38{opacity:0.63;}.cls-39{opacity:0.65;}.cls-40{opacity:0.67;}.cls-41{opacity:0.69;}.cls-42{opacity:0.71;}.cls-43{opacity:0.73;}.cls-44{opacity:0.75;}.cls-45{opacity:0.76;}.cls-46{opacity:0.78;}.cls-47{opacity:0.8;}.cls-48{opacity:0.82;}.cls-49{opacity:0.84;}.cls-50{opacity:0.86;}.cls-51{opacity:0.88;}.cls-52{opacity:0.9;}.cls-53{opacity:0.92;}.cls-54{opacity:0.94;}.cls-55{opacity:0.96;}.cls-56{opacity:0.98;}.cls-57{font-size:47.58px;fill:#fff;font-family:Montserrat-Black, Montserrat;font-weight:800;}.cls-58{clip-path:url(#clip-path-2);}.cls-59{fill:#802059;}.cls-60{clip-path:url(#clip-path-3);}.cls-61{fill:#f3d647;}.cls-62{clip-path:url(#clip-path-4);}.cls-63{clip-path:url(#clip-path-5);}.cls-64{clip-path:url(#clip-path-6);}</style><clipPath id="clip-path"><circle class="cls-1" cx="37.5" cy="209.53" r="37.5" transform="translate(-175.33 212.47) rotate(-80.64)"/></clipPath><clipPath id="clip-path-2"><circle class="cls-2" cx="37.5" cy="295.54" r="37.5"/></clipPath><clipPath id="clip-path-3"><circle class="cls-1" cx="37.5" cy="381.55" r="37.5"/></clipPath><clipPath id="clip-path-4"><circle class="cls-1" cx="37.5" cy="467.56" r="37.5"/></clipPath><clipPath id="clip-path-5"><circle class="cls-2" cx="37.5" cy="37.5" r="37.5" transform="translate(-5.6 68.41) rotate(-80.64)"/></clipPath><clipPath id="clip-path-6"><circle class="cls-2" cx="37.5" cy="123.51" r="37.5" transform="translate(-90.47 140.44) rotate(-80.64)"/></clipPath></defs><g id="Layer_2" data-name="Layer 2"><g id="numbers"><circle class="cls-3" cx="37.5" cy="209.53" r="37.5" transform="translate(-175.33 212.47) rotate(-80.64)"/><circle class="cls-1" cx="37.5" cy="209.53" r="37.5" transform="translate(-175.33 212.47) rotate(-80.64)"/><g class="cls-4"><g class="cls-5"><path class="cls-6" d="M70.34,234.59a9.06,9.06,0,0,1,7.28,9.23c0,6.52-5.23,11.09-13.32,11.09a22.25,22.25,0,0,1-13.47-4.43l4.38-8.37c2.52,3.09,5.28,4.66,8.18,4.66,2.29,0,3.43-1,3.43-2.9s-1.14-2.9-3.43-2.9h-6v-5.76l6.33-6.05H52.59v-8H76.1v6.19l-7.19,6.9Z"/><path class="cls-7" d="M69.81,234.05a9.08,9.08,0,0,1,7.28,9.23c0,6.52-5.24,11.09-13.33,11.09A22.28,22.28,0,0,1,50.3,250l4.37-8.38c2.52,3.09,5.29,4.66,8.19,4.66,2.28,0,3.42-.95,3.42-2.9s-1.14-2.9-3.42-2.9h-6v-5.76l6.32-6H52.06v-8h23.5v6.19l-7.18,6.9Z"/><path class="cls-8" d="M69.27,233.52a9.06,9.06,0,0,1,7.28,9.23c0,6.52-5.23,11.09-13.32,11.09a22.25,22.25,0,0,1-13.47-4.43L54.14,241c2.52,3.09,5.28,4.66,8.18,4.66,2.29,0,3.43-.95,3.43-2.9s-1.14-2.91-3.43-2.91h-6v-5.75l6.33-6H51.52v-8H75v6.18l-7.19,6.9Z"/><path class="cls-9" d="M68.73,233A9.07,9.07,0,0,1,76,242.21c0,6.52-5.23,11.09-13.32,11.09a22.25,22.25,0,0,1-13.47-4.43l4.38-8.37c2.52,3.09,5.28,4.66,8.19,4.66,2.28,0,3.42-.95,3.42-2.9s-1.14-2.9-3.42-2.9h-6V233.6l6.33-6H51v-8H74.49v6.19l-7.18,6.9Z"/><path class="cls-10" d="M68.2,232.44a9.08,9.08,0,0,1,7.28,9.24c0,6.52-5.24,11.08-13.33,11.08a22.28,22.28,0,0,1-13.46-4.42L53.06,240c2.53,3.1,5.29,4.67,8.19,4.67,2.28,0,3.43-1,3.43-2.91s-1.15-2.9-3.43-2.9h-6v-5.76l6.33-6H50.45v-8H74v6.18l-7.19,6.9Z"/><path class="cls-11" d="M67.66,231.91a9.06,9.06,0,0,1,7.28,9.23c0,6.52-5.23,11.09-13.32,11.09a22.25,22.25,0,0,1-13.47-4.43l4.38-8.37c2.52,3.09,5.28,4.66,8.18,4.66,2.29,0,3.43-1,3.43-2.9s-1.14-2.91-3.43-2.91h-6v-5.75L61,226.48H49.91v-8H73.42v6.19l-7.19,6.9Z"/><path class="cls-12" d="M67.12,231.37a9.08,9.08,0,0,1,7.29,9.23c0,6.52-5.24,11.09-13.33,11.09a22.26,22.26,0,0,1-13.46-4.42L52,238.89c2.52,3.09,5.28,4.66,8.19,4.66,2.28,0,3.42-1,3.42-2.9s-1.14-2.9-3.42-2.9h-6V232l6.33-6H49.38v-8h23.5v6.19L65.7,231Z"/><path class="cls-13" d="M66.59,230.84a9.06,9.06,0,0,1,7.28,9.23c0,6.52-5.24,11.08-13.32,11.08a22.29,22.29,0,0,1-13.47-4.42l4.38-8.38c2.52,3.1,5.28,4.67,8.18,4.67,2.29,0,3.43-1,3.43-2.9s-1.14-2.91-3.43-2.91h-6v-5.76l6.33-6H48.84v-8H72.35v6.18l-7.19,6.9Z"/><path class="cls-14" d="M66.05,230.3a9.06,9.06,0,0,1,7.28,9.23c0,6.52-5.23,11.09-13.32,11.09a22.25,22.25,0,0,1-13.47-4.43l4.38-8.37c2.52,3.09,5.28,4.66,8.19,4.66,2.28,0,3.42-.95,3.42-2.9s-1.14-2.9-3.42-2.9h-6v-5.76l6.33-6H48.3v-8H71.81v6.19L64.63,230Z"/><path class="cls-15" d="M65.52,229.76A9.08,9.08,0,0,1,72.8,239c0,6.51-5.24,11.08-13.33,11.08A22.28,22.28,0,0,1,46,245.66l4.37-8.38c2.53,3.1,5.29,4.67,8.19,4.67C60.85,242,62,241,62,239s-1.15-2.9-3.43-2.9h-6v-5.76l6.32-6H47.77v-8h23.5v6.19l-7.18,6.9Z"/><path class="cls-16" d="M65,229.23a9.06,9.06,0,0,1,7.28,9.23c0,6.52-5.23,11.09-13.32,11.09a22.25,22.25,0,0,1-13.47-4.43l4.38-8.37c2.52,3.09,5.28,4.66,8.18,4.66,2.29,0,3.43-.95,3.43-2.9S60.32,235.6,58,235.6H52v-5.75l6.33-6H47.23v-8H70.74V222l-7.19,6.9Z"/><path class="cls-17" d="M64.44,228.69a9.07,9.07,0,0,1,7.28,9.23c0,6.52-5.23,11.09-13.32,11.09a22.25,22.25,0,0,1-13.47-4.43l4.38-8.37c2.52,3.09,5.28,4.66,8.19,4.66,2.28,0,3.42-1,3.42-2.9s-1.14-2.9-3.42-2.9h-6v-5.76l6.33-6H46.69v-8H70.2v6.19L63,228.36Z"/><path class="cls-18" d="M63.91,228.16a9.05,9.05,0,0,1,7.28,9.23c0,6.52-5.24,11.08-13.33,11.08a22.28,22.28,0,0,1-13.46-4.42l4.38-8.38c2.52,3.1,5.28,4.67,8.18,4.67,2.28,0,3.43-1,3.43-2.91s-1.15-2.9-3.43-2.9h-6v-5.76l6.33-6H46.16v-8H69.67v6.18l-7.19,6.9Z"/><path class="cls-19" d="M63.37,227.62a9.06,9.06,0,0,1,7.28,9.23c0,6.52-5.23,11.09-13.32,11.09a22.25,22.25,0,0,1-13.47-4.43l4.38-8.37c2.52,3.09,5.28,4.66,8.18,4.66,2.29,0,3.43-1,3.43-2.9s-1.14-2.9-3.43-2.9h-6v-5.76l6.33-6.05H45.62v-8H69.13v6.19l-7.19,6.9Z"/><path class="cls-20" d="M62.84,227.08a9.08,9.08,0,0,1,7.28,9.23c0,6.52-5.24,11.09-13.33,11.09A22.28,22.28,0,0,1,43.33,243l4.37-8.38c2.53,3.09,5.29,4.66,8.19,4.66,2.28,0,3.42-.95,3.42-2.9s-1.14-2.9-3.42-2.9h-6V227.7l6.32-6H45.09v-8h23.5v6.19l-7.18,6.9Z"/><path class="cls-21" d="M62.3,226.55a9.06,9.06,0,0,1,7.28,9.23c0,6.52-5.23,11.09-13.32,11.09a22.3,22.3,0,0,1-13.47-4.43l4.38-8.37c2.52,3.09,5.28,4.66,8.18,4.66,2.29,0,3.43-.95,3.43-2.9s-1.14-2.91-3.43-2.91h-6v-5.75l6.33-6H44.55v-8H68.06v6.18l-7.19,6.9Z"/><path class="cls-22" d="M61.76,226A9.07,9.07,0,0,1,69,235.24c0,6.52-5.23,11.09-13.32,11.09a22.25,22.25,0,0,1-13.47-4.43l4.38-8.37c2.52,3.09,5.28,4.66,8.19,4.66,2.28,0,3.42-.95,3.42-2.9s-1.14-2.9-3.42-2.9h-6v-5.76l6.33-6H44v-8H67.52v6.19l-7.18,6.9Z"/><path class="cls-23" d="M61.23,225.47a9.08,9.08,0,0,1,7.28,9.24c0,6.51-5.24,11.08-13.33,11.08a22.28,22.28,0,0,1-13.46-4.42L46.09,233c2.53,3.1,5.29,4.67,8.19,4.67,2.28,0,3.43-1,3.43-2.91s-1.15-2.9-3.43-2.9h-6v-5.76l6.33-6H43.48v-8H67v6.18l-7.19,6.9Z"/><path class="cls-24" d="M60.69,224.94A9.06,9.06,0,0,1,68,234.17c0,6.52-5.23,11.09-13.32,11.09a22.25,22.25,0,0,1-13.47-4.43l4.38-8.37c2.52,3.09,5.28,4.66,8.18,4.66,2.29,0,3.43-1,3.43-2.9s-1.14-2.91-3.43-2.91h-6v-5.75L54,219.51H42.94v-8H66.45v6.19l-7.19,6.89Z"/><path class="cls-25" d="M60.15,224.4a9.08,9.08,0,0,1,7.29,9.23c0,6.52-5.24,11.09-13.33,11.09a22.26,22.26,0,0,1-13.46-4.42L45,231.92c2.52,3.09,5.28,4.66,8.19,4.66,2.28,0,3.42-1,3.42-2.9s-1.14-2.9-3.42-2.9H47.16V225l6.33-6H42.41v-8h23.5v6.19l-7.18,6.9Z"/><path class="cls-26" d="M59.62,223.87a9.06,9.06,0,0,1,7.28,9.23c0,6.52-5.24,11.08-13.32,11.08a22.29,22.29,0,0,1-13.47-4.42l4.38-8.38c2.52,3.1,5.28,4.67,8.18,4.67,2.28,0,3.43-1,3.43-2.9s-1.15-2.91-3.43-2.91h-6v-5.76l6.33-6H41.87v-8H65.38v6.18l-7.19,6.9Z"/><path class="cls-27" d="M59.08,223.33a9.06,9.06,0,0,1,7.28,9.23c0,6.52-5.23,11.09-13.32,11.09a22.25,22.25,0,0,1-13.47-4.43L44,230.85c2.52,3.09,5.28,4.66,8.18,4.66,2.29,0,3.43-.95,3.43-2.9s-1.14-2.9-3.43-2.9h-6V224l6.33-6H41.33v-8H64.84v6.19L57.65,223Z"/><path class="cls-28" d="M58.55,222.79A9.08,9.08,0,0,1,65.83,232c0,6.51-5.24,11.08-13.33,11.08A22.28,22.28,0,0,1,39,238.69l4.37-8.38C45.94,233.4,48.7,235,51.6,235c2.28,0,3.43-1,3.43-2.91s-1.15-2.9-3.43-2.9h-6v-5.76l6.32-6H40.8v-8H64.3v6.19l-7.18,6.9Z"/><path class="cls-29" d="M58,222.26a9.06,9.06,0,0,1,7.28,9.23c0,6.52-5.23,11.09-13.32,11.09a22.25,22.25,0,0,1-13.47-4.43l4.38-8.37c2.52,3.09,5.28,4.66,8.18,4.66,2.29,0,3.43-.95,3.43-2.9s-1.14-2.91-3.43-2.91H45v-5.75l6.33-6H40.26v-8H63.77V215l-7.19,6.9Z"/><path class="cls-30" d="M57.47,221.72A9.07,9.07,0,0,1,64.75,231c0,6.52-5.23,11.09-13.32,11.09A22.25,22.25,0,0,1,38,237.61l4.38-8.37c2.52,3.09,5.28,4.66,8.19,4.66,2.28,0,3.42-1,3.42-2.9s-1.14-2.9-3.42-2.9H44.48v-5.76l6.33-6H39.72v-8H63.23v6.19l-7.18,6.9Z"/><path class="cls-31" d="M56.94,221.18a9.07,9.07,0,0,1,7.28,9.24c0,6.52-5.24,11.08-13.33,11.08a22.28,22.28,0,0,1-13.46-4.42l4.38-8.38c2.52,3.1,5.28,4.67,8.18,4.67,2.28,0,3.43-1,3.43-2.91s-1.15-2.9-3.43-2.9H44V221.8l6.33-6H39.19v-8H62.7V214l-7.19,6.9Z"/><path class="cls-32" d="M56.4,220.65a9.06,9.06,0,0,1,7.28,9.23c0,6.52-5.23,11.09-13.32,11.09a22.25,22.25,0,0,1-13.47-4.43l4.38-8.37c2.52,3.09,5.28,4.66,8.18,4.66,2.29,0,3.43-1,3.43-2.9s-1.14-2.9-3.43-2.9h-6v-5.76l6.33-6.05H38.65v-8H62.16v6.19L55,220.32Z"/><path class="cls-33" d="M55.87,220.11a9.08,9.08,0,0,1,7.28,9.23c0,6.52-5.24,11.09-13.33,11.09A22.28,22.28,0,0,1,36.36,236l4.37-8.38c2.53,3.09,5.29,4.66,8.19,4.66,2.28,0,3.42-.95,3.42-2.9s-1.14-2.9-3.42-2.9h-6v-5.76l6.32-6H38.12v-8h23.5v6.19l-7.18,6.9Z"/><path class="cls-34" d="M55.33,219.58a9.06,9.06,0,0,1,7.28,9.23c0,6.52-5.23,11.09-13.32,11.09a22.3,22.3,0,0,1-13.47-4.43l4.38-8.38c2.52,3.1,5.28,4.67,8.18,4.67,2.29,0,3.43-.95,3.43-2.9S50.67,226,48.38,226h-6V220.2l6.33-6H37.58v-8H61.09v6.18l-7.19,6.9Z"/><path class="cls-35" d="M54.79,219a9.07,9.07,0,0,1,7.28,9.23c0,6.52-5.23,11.09-13.32,11.09a22.25,22.25,0,0,1-13.47-4.43l4.38-8.37c2.52,3.09,5.28,4.66,8.19,4.66,2.28,0,3.42-.95,3.42-2.9s-1.14-2.9-3.42-2.9H41.8v-5.76l6.33-6H37v-8H60.55v6.19l-7.18,6.9Z"/><path class="cls-36" d="M54.26,218.5a9.08,9.08,0,0,1,7.28,9.24c0,6.51-5.24,11.08-13.33,11.08a22.28,22.28,0,0,1-13.46-4.42L39.12,226c2.53,3.1,5.29,4.67,8.19,4.67,2.28,0,3.43-1,3.43-2.91s-1.15-2.9-3.43-2.9h-6v-5.76l6.33-6H36.51v-8H60v6.18l-7.18,6.9Z"/><path class="cls-37" d="M53.72,218A9.06,9.06,0,0,1,61,227.2c0,6.52-5.23,11.09-13.32,11.09a22.25,22.25,0,0,1-13.47-4.43l4.38-8.37c2.52,3.09,5.28,4.66,8.18,4.66,2.29,0,3.43-1,3.43-2.9s-1.14-2.91-3.43-2.91h-6v-5.75l6.33-6.05H36v-8H59.48v6.19l-7.19,6.89Z"/><path class="cls-38" d="M53.18,217.43a9.07,9.07,0,0,1,7.28,9.23c0,6.52-5.23,11.09-13.32,11.09a22.31,22.31,0,0,1-13.47-4.42L38.05,225c2.52,3.09,5.28,4.66,8.19,4.66,2.28,0,3.42-1,3.42-2.9s-1.14-2.9-3.42-2.9H40.19v-5.76l6.33-6H35.44v-8h23.5v6.19l-7.18,6.9Z"/><path class="cls-39" d="M52.65,216.9a9.06,9.06,0,0,1,7.28,9.23c0,6.52-5.24,11.08-13.32,11.08a22.29,22.29,0,0,1-13.47-4.42l4.38-8.38c2.52,3.1,5.28,4.67,8.18,4.67,2.28,0,3.43-1,3.43-2.91s-1.15-2.9-3.43-2.9h-6v-5.76l6.33-6H34.9v-8H58.41v6.18l-7.19,6.9Z"/><path class="cls-40" d="M52.11,216.36a9.06,9.06,0,0,1,7.28,9.23c0,6.52-5.23,11.09-13.32,11.09a22.25,22.25,0,0,1-13.47-4.43L37,223.88c2.52,3.09,5.28,4.66,8.18,4.66,2.29,0,3.43-.95,3.43-2.9s-1.14-2.9-3.43-2.9h-6V217l6.33-6H34.36v-8H57.87v6.19L50.68,216Z"/><path class="cls-41" d="M51.58,215.82a9.08,9.08,0,0,1,7.28,9.23c0,6.52-5.24,11.09-13.33,11.09a22.28,22.28,0,0,1-13.46-4.42l4.37-8.38C39,226.43,41.73,228,44.63,228c2.28,0,3.43-1,3.43-2.91s-1.15-2.9-3.43-2.9h-6v-5.76l6.32-6H33.83v-8h23.5v6.19l-7.18,6.9Z"/><path class="cls-42" d="M51,215.29a9.06,9.06,0,0,1,7.28,9.23c0,6.52-5.23,11.09-13.32,11.09a22.25,22.25,0,0,1-13.47-4.43l4.38-8.37c2.52,3.09,5.28,4.66,8.18,4.66,2.29,0,3.43-.95,3.43-2.9s-1.14-2.91-3.43-2.91h-6v-5.75l6.33-6H33.29v-8H56.8v6.18L49.61,215Z"/><path class="cls-43" d="M50.5,214.75A9.07,9.07,0,0,1,57.78,224c0,6.52-5.23,11.09-13.32,11.09A22.25,22.25,0,0,1,31,230.64l4.38-8.37c2.52,3.09,5.28,4.66,8.19,4.66,2.28,0,3.42-1,3.42-2.9s-1.14-2.9-3.42-2.9H37.51v-5.76l6.33-6H32.75v-8H56.26v6.19l-7.18,6.9Z"/><path class="cls-44" d="M50,214.21a9.07,9.07,0,0,1,7.28,9.24c0,6.52-5.24,11.08-13.33,11.08a22.28,22.28,0,0,1-13.46-4.42l4.38-8.38c2.52,3.1,5.28,4.67,8.18,4.67,2.28,0,3.43-1,3.43-2.91s-1.15-2.9-3.43-2.9H37v-5.76l6.33-6H32.22v-8H55.73V207l-7.19,6.9Z"/><path class="cls-45" d="M49.43,213.68a9.06,9.06,0,0,1,7.28,9.23c0,6.52-5.23,11.09-13.32,11.09a22.25,22.25,0,0,1-13.47-4.43l4.38-8.37c2.52,3.09,5.28,4.66,8.18,4.66,2.29,0,3.43-1,3.43-2.9s-1.14-2.9-3.43-2.9h-6V214.3l6.33-6.05H31.68v-8H55.19v6.19L48,213.35Z"/><path class="cls-46" d="M48.9,213.14a9.08,9.08,0,0,1,7.28,9.23c0,6.52-5.24,11.09-13.33,11.09A22.28,22.28,0,0,1,29.39,229l4.37-8.38c2.53,3.09,5.28,4.66,8.19,4.66,2.28,0,3.42-.95,3.42-2.9s-1.14-2.9-3.42-2.9H35.9v-5.76l6.33-6H31.15v-8h23.5v6.19l-7.18,6.9Z"/><path class="cls-47" d="M48.36,212.61a9.06,9.06,0,0,1,7.28,9.23c0,6.52-5.23,11.09-13.32,11.09a22.3,22.3,0,0,1-13.47-4.43l4.38-8.38c2.52,3.1,5.28,4.67,8.18,4.67,2.29,0,3.43-.95,3.43-2.9S43.7,219,41.41,219h-6v-5.76l6.33-6H30.61v-8H54.12v6.18l-7.19,6.9Z"/><path class="cls-48" d="M47.82,212.07a9.07,9.07,0,0,1,7.28,9.23c0,6.52-5.23,11.09-13.32,11.09A22.25,22.25,0,0,1,28.31,228l4.38-8.37c2.52,3.09,5.28,4.66,8.19,4.66,2.28,0,3.42-.95,3.42-2.9s-1.14-2.9-3.42-2.9H34.83v-5.76l6.33-6H30.07v-8H53.58v6.19l-7.18,6.9Z"/><path class="cls-49" d="M47.29,211.53a9.08,9.08,0,0,1,7.28,9.24c0,6.51-5.24,11.08-13.33,11.08a22.28,22.28,0,0,1-13.46-4.42l4.37-8.38c2.53,3.1,5.29,4.67,8.19,4.67,2.28,0,3.43-1,3.43-2.91s-1.15-2.9-3.43-2.9h-6v-5.76l6.33-6H29.54v-8H53v6.19l-7.18,6.9Z"/><path class="cls-50" d="M46.75,211A9.06,9.06,0,0,1,54,220.23c0,6.52-5.23,11.09-13.32,11.09a22.25,22.25,0,0,1-13.47-4.43l4.38-8.37c2.52,3.09,5.28,4.66,8.18,4.66,2.29,0,3.43-1,3.43-2.9s-1.14-2.91-3.43-2.91h-6v-5.75l6.33-6.05H29v-8H52.51v6.18l-7.19,6.9Z"/><path class="cls-51" d="M46.21,210.46a9.07,9.07,0,0,1,7.28,9.23c0,6.52-5.23,11.09-13.32,11.09a22.31,22.31,0,0,1-13.47-4.42L31.08,218c2.52,3.09,5.28,4.66,8.19,4.66,2.28,0,3.42-.95,3.42-2.9s-1.14-2.9-3.42-2.9H33.22v-5.76l6.33-6H28.46v-8H52v6.19l-7.18,6.9Z"/><path class="cls-52" d="M45.68,209.93A9.05,9.05,0,0,1,53,219.16c0,6.52-5.24,11.08-13.33,11.08a22.28,22.28,0,0,1-13.46-4.42l4.38-8.38c2.52,3.1,5.28,4.67,8.18,4.67,2.28,0,3.43-1,3.43-2.91s-1.15-2.9-3.43-2.9h-6v-5.76l6.33-6H27.93v-8H51.44v6.18l-7.19,6.9Z"/><path class="cls-53" d="M45.14,209.39a9.06,9.06,0,0,1,7.28,9.23c0,6.52-5.23,11.09-13.32,11.09a22.25,22.25,0,0,1-13.47-4.43L30,216.91c2.52,3.09,5.28,4.66,8.18,4.66,2.29,0,3.43-.95,3.43-2.9s-1.14-2.9-3.43-2.9h-6V210l6.33-6H27.39v-8H50.9v6.19l-7.19,6.9Z"/><path class="cls-54" d="M44.61,208.85a9.08,9.08,0,0,1,7.28,9.23c0,6.52-5.24,11.09-13.33,11.09a22.28,22.28,0,0,1-13.46-4.42l4.37-8.38C32,219.46,34.76,221,37.66,221c2.28,0,3.43-.95,3.43-2.9s-1.15-2.9-3.43-2.9h-6v-5.76l6.32-6H26.86v-8h23.5v6.19l-7.18,6.9Z"/><path class="cls-55" d="M44.07,208.32a9.06,9.06,0,0,1,7.28,9.23c0,6.52-5.23,11.09-13.32,11.09a22.25,22.25,0,0,1-13.47-4.43l4.38-8.37c2.52,3.09,5.28,4.66,8.18,4.66,2.29,0,3.43-.95,3.43-2.9s-1.14-2.91-3.43-2.91h-6v-5.75l6.33-6.05H26.32v-8H49.83v6.18L42.64,208Z"/><path class="cls-56" d="M43.53,207.78A9.07,9.07,0,0,1,50.81,217c0,6.52-5.23,11.09-13.32,11.09A22.25,22.25,0,0,1,24,223.67l4.38-8.37c2.52,3.09,5.28,4.66,8.19,4.66,2.28,0,3.42-1,3.42-2.9s-1.14-2.9-3.42-2.9H30.54V208.4l6.33-6H25.78v-8H49.29v6.19l-7.18,6.9Z"/><path d="M43,207.24a9.07,9.07,0,0,1,7.28,9.24C50.28,223,45,227.56,37,227.56a22.28,22.28,0,0,1-13.46-4.42l4.38-8.38c2.52,3.1,5.28,4.67,8.18,4.67,2.28,0,3.43-1,3.43-2.91s-1.15-2.9-3.43-2.9H30v-5.76l6.33-6H25.25v-8H48.76V200l-7.19,6.9Z"/></g><text class="cls-57" transform="translate(22.89 227.09)">3</text></g><circle class="cls-1" cx="37.5" cy="295.54" r="37.5"/><g class="cls-58"><g class="cls-5"><path class="cls-6" d="M70.72,327.72v-6.38H81v6.38h4.23v7.9H81V342H70.72v-6.42H55v-7.24l9.76-19.7H75.29l-9.09,19Z"/><path class="cls-7" d="M70.19,327.18V320.8H80.42v6.38h4.23v7.9H80.42v6.42H70.19v-6.42H54.49v-7.23l9.75-19.7H74.76l-9.09,19Z"/><path class="cls-8" d="M69.65,326.64v-6.37H79.88v6.37h4.24v7.9H79.88V341H69.65v-6.43H54v-7.23l9.75-19.7H74.22l-9.09,19Z"/><path class="cls-9" d="M69.12,326.11v-6.38H79.35v6.38h4.23V334H79.35v6.42H69.12V334H53.41v-7.24l9.76-19.7H73.68l-9.08,19Z"/><path class="cls-10" d="M68.58,325.57v-6.38H78.81v6.38h4.24v7.9H78.81v6.42H68.58v-6.42H52.88v-7.23l9.75-19.7H73.15l-9.09,19Z"/><path class="cls-11" d="M68,325v-6.38H78.27V325h4.24v7.89H78.27v6.43H68v-6.43H52.34V325.7L62.1,306H72.61l-9.09,19Z"/><path class="cls-12" d="M67.51,324.5v-6.38H77.74v6.38H82v7.9H77.74v6.42H67.51V332.4H51.8v-7.23l9.76-19.7H72.08L63,324.5Z"/><path class="cls-13" d="M67,324v-6.37H77.2V324h4.24v7.9H77.2v6.43H67v-6.43H51.27v-7.23L61,304.93H71.54l-9.09,19Z"/><path class="cls-14" d="M66.44,323.43v-6.38H76.67v6.38H80.9v7.9H76.67v6.42H66.44v-6.42H50.73v-7.24l9.76-19.7H71l-9.09,19Z"/><path class="cls-15" d="M65.9,322.89v-6.38H76.13v6.38h4.24v7.9H76.13v6.42H65.9v-6.42H50.2v-7.23L60,303.86H70.47l-9.09,19Z"/><path class="cls-16" d="M65.36,322.35V316H75.59v6.37h4.24v7.9H75.59v6.43H65.36v-6.43H49.66V323l9.75-19.7H69.93l-9.09,19Z"/><path class="cls-17" d="M64.83,321.82v-6.38H75.06v6.38h4.23v7.9H75.06v6.42H64.83v-6.42H49.12v-7.24l9.76-19.7H69.4l-9.09,19Z"/><path class="cls-18" d="M64.29,321.28v-6.37H74.52v6.37h4.24v7.9H74.52v6.43H64.29v-6.43H48.59V322l9.75-19.7H68.86l-9.09,19Z"/><path class="cls-19" d="M63.75,320.75v-6.38H74v6.38h4.23v7.9H74v6.42H63.75v-6.42H48.05v-7.24l9.76-19.7H68.32l-9.09,19Z"/><path class="cls-20" d="M63.22,320.21v-6.38H73.45v6.38h4.23v7.9H73.45v6.42H63.22v-6.42H47.52v-7.23l9.75-19.7H67.79l-9.09,19Z"/><path class="cls-21" d="M62.68,319.67V313.3H72.91v6.37h4.24v7.9H72.91V334H62.68v-6.43H47v-7.23l9.75-19.7H67.25l-9.09,19Z"/><path class="cls-22" d="M62.15,319.14v-6.38H72.38v6.38h4.23V327H72.38v6.42H62.15V327H46.44V319.8l9.76-19.7H66.71l-9.08,19Z"/><path class="cls-23" d="M61.61,318.6v-6.38H71.84v6.38h4.24v7.9H71.84v6.42H61.61V326.5H45.91v-7.23l9.75-19.7H66.18l-9.09,19Z"/><path class="cls-24" d="M61.07,318.07v-6.38H71.3v6.38h4.24V326H71.3v6.43H61.07V326H45.37v-7.23L55.13,299H65.64l-9.09,19Z"/><path class="cls-25" d="M60.54,317.53v-6.38H70.77v6.38H75v7.9H70.77v6.42H60.54v-6.42H44.83V318.2l9.76-19.71H65.11l-9.09,19Z"/><path class="cls-26" d="M60,317v-6.37H70.23V317h4.24v7.9H70.23v6.43H60v-6.43H44.3v-7.23L54.05,298H64.57l-9.09,19Z"/><path class="cls-27" d="M59.47,316.46v-6.38H69.7v6.38h4.23v7.9H69.7v6.42H59.47v-6.42H43.76v-7.24l9.76-19.7H64l-9.09,19Z"/><path class="cls-28" d="M58.93,315.92v-6.38H69.16v6.38h4.23v7.9H69.16v6.42H58.93v-6.42H43.23v-7.23L53,296.89H63.5l-9.09,19Z"/><path class="cls-29" d="M58.39,315.38V309H68.62v6.37h4.24v7.9H68.62v6.43H58.39v-6.43H42.69v-7.23l9.75-19.7H63l-9.09,19Z"/><path class="cls-30" d="M57.86,314.85v-6.38H68.09v6.38h4.23v7.9H68.09v6.42H57.86v-6.42H42.15v-7.24l9.76-19.7H62.43l-9.09,19Z"/><path class="cls-31" d="M57.32,314.31v-6.37H67.55v6.37h4.24v7.9H67.55v6.43H57.32v-6.43H41.62V315l9.75-19.7H61.89l-9.09,19Z"/><path class="cls-32" d="M56.78,313.78V307.4H67v6.38h4.23v7.9H67v6.42H56.78v-6.42H41.08v-7.24l9.76-19.7H61.35l-9.09,19Z"/><path class="cls-33" d="M56.25,313.24v-6.38H66.48v6.38h4.23v7.9H66.48v6.42H56.25v-6.42H40.55v-7.23l9.75-19.7H60.82l-9.09,19Z"/><path class="cls-34" d="M55.71,312.7v-6.37H65.94v6.37h4.24v7.9H65.94V327H55.71V320.6H40v-7.23l9.75-19.7H60.28l-9.09,19Z"/><path class="cls-35" d="M55.18,312.17v-6.38H65.41v6.38h4.23v7.9H65.41v6.42H55.18v-6.42H39.47v-7.24l9.76-19.7H59.74l-9.08,19Z"/><path class="cls-36" d="M54.64,311.63v-6.38H64.87v6.38h4.24v7.9H64.87V326H54.64v-6.42H38.94V312.3l9.75-19.7H59.21l-9.09,19Z"/><path class="cls-37" d="M54.1,311.1v-6.38H64.33v6.38h4.24V319H64.33v6.43H54.1V319H38.4v-7.23l9.76-19.7H58.67l-9.09,19Z"/><path class="cls-38" d="M53.57,310.56v-6.38H63.8v6.38H68v7.9H63.8v6.42H53.57v-6.42H37.86v-7.23l9.76-19.71H58.14l-9.09,19Z"/><path class="cls-39" d="M53,310v-6.37H63.26V310H67.5v7.9H63.26v6.43H53v-6.43H37.33v-7.23L47.08,291H57.6l-9.09,19Z"/><path class="cls-40" d="M52.5,309.49v-6.38H62.73v6.38H67v7.9H62.73v6.42H52.5v-6.42H36.79v-7.24l9.76-19.7H57.06l-9.09,19Z"/><path class="cls-41" d="M52,309v-6.38H62.19V309h4.23v7.9H62.19v6.42H52v-6.42H36.26v-7.23L46,289.92H56.53l-9.09,19Z"/><path class="cls-42" d="M51.42,308.41V302H61.65v6.37h4.24v7.9H61.65v6.43H51.42v-6.43H35.72v-7.23l9.75-19.7H56l-9.09,19Z"/><path class="cls-43" d="M50.89,307.88V301.5H61.12v6.38h4.23v7.9H61.12v6.42H50.89v-6.42H35.18v-7.24l9.76-19.7H55.45l-9.08,19Z"/><path class="cls-44" d="M50.35,307.34V301H60.58v6.37h4.24v7.9H60.58v6.43H50.35v-6.43H34.65V308l9.75-19.7H54.92l-9.09,19Z"/><path class="cls-45" d="M49.81,306.81v-6.38H60v6.38h4.24v7.89H60v6.43H49.81V314.7H34.11v-7.23l9.76-19.7H54.38l-9.09,19Z"/><path class="cls-46" d="M49.28,306.27v-6.38H59.51v6.38h4.23v7.9H59.51v6.42H49.28v-6.42H33.57v-7.23l9.76-19.7H53.85l-9.09,19Z"/><path class="cls-47" d="M48.74,305.73v-6.37H59v6.37h4.24v7.9H59v6.43H48.74v-6.43H33V306.4l9.75-19.7H53.31l-9.09,19Z"/><path class="cls-48" d="M48.21,305.2v-6.38H58.44v6.38h4.23v7.9H58.44v6.42H48.21V313.1H32.5v-7.24l9.76-19.7H52.77l-9.09,19Z"/><path class="cls-49" d="M47.67,304.66v-6.38H57.9v6.38h4.24v7.9H57.9V319H47.67v-6.42H32v-7.23l9.75-19.7H52.24l-9.09,19Z"/><path class="cls-50" d="M47.13,304.12v-6.37H57.36v6.37H61.6V312H57.36v6.43H47.13V312H31.43v-7.23l9.76-19.7H51.7l-9.09,19Z"/><path class="cls-51" d="M46.6,303.59v-6.38H56.83v6.38h4.23v7.9H56.83v6.42H46.6v-6.42H30.89v-7.23l9.76-19.71H51.17l-9.09,19Z"/><path class="cls-52" d="M46.06,303.05v-6.37H56.29v6.37h4.24V311H56.29v6.43H46.06V311H30.36v-7.23L40.11,284H50.63l-9.09,19Z"/><path class="cls-53" d="M45.53,302.52v-6.38H55.76v6.38H60v7.9H55.76v6.42H45.53v-6.42H29.82v-7.24l9.76-19.7H50.09l-9.09,19Z"/><path class="cls-54" d="M45,302V295.6H55.22V302h4.23v7.9H55.22v6.42H45v-6.42H29.29v-7.23L39,283H49.56l-9.09,19Z"/><path class="cls-55" d="M44.45,301.44v-6.37H54.68v6.37h4.24v7.9H54.68v6.43H44.45v-6.43H28.75v-7.23l9.75-19.7H49l-9.09,19Z"/><path class="cls-56" d="M43.92,300.91v-6.38H54.15v6.38h4.23v7.9H54.15v6.42H43.92v-6.42H28.21v-7.24L38,281.87H48.48l-9.08,19Z"/><path d="M43.38,300.37V294H53.61v6.37h4.24v7.9H53.61v6.42H43.38v-6.42H27.68V301l9.75-19.7H48l-9.09,19Z"/></g><text class="cls-57" transform="translate(21.36 313.1)">4</text></g><circle class="cls-59" cx="37.5" cy="381.55" r="37.5"/><circle class="cls-1" cx="37.5" cy="381.55" r="37.5"/><g class="cls-60"><g class="cls-5"><path class="cls-6" d="M63.59,401.57v3.52h1.47c8,0,13.28,3.9,13.28,10,0,7.19-5.57,11.85-14.14,11.85a24.92,24.92,0,0,1-13.75-4.42l4.38-8.38c2.38,3.1,5.09,4.67,8,4.67,2.38,0,3.57-1,3.57-2.95s-1.19-2.72-3.57-2.72H53.5v-20H76.77v8.47Z"/><path class="cls-7" d="M63.05,401v3.53h1.47c8,0,13.28,3.9,13.28,10,0,7.18-5.57,11.85-14.13,11.85A24.83,24.83,0,0,1,49.92,422l4.37-8.37c2.38,3.09,5.09,4.66,8.05,4.66,2.37,0,3.56-1,3.56-2.95s-1.19-2.71-3.56-2.71H53v-20H76.23V401Z"/><path class="cls-8" d="M62.51,400.5V404H64c8,0,13.27,3.9,13.27,10,0,7.19-5.56,11.85-14.13,11.85a24.9,24.9,0,0,1-13.75-4.42l4.38-8.38c2.38,3.09,5.09,4.66,8,4.66,2.38,0,3.57-1,3.57-3,0-1.8-1.19-2.71-3.57-2.71H52.43V392H75.69v8.47Z"/><path class="cls-9" d="M62,400v3.52h1.47c8,0,13.28,3.91,13.28,10,0,7.18-5.57,11.84-14.13,11.84a24.93,24.93,0,0,1-13.76-4.42l4.38-8.38c2.38,3.1,5.09,4.67,8,4.67,2.38,0,3.57-1,3.57-2.95s-1.19-2.71-3.57-2.71H51.89v-20H75.16V400Z"/><path class="cls-10" d="M61.44,399.43V403h1.48c8,0,13.27,3.9,13.27,10,0,7.19-5.57,11.85-14.13,11.85a24.83,24.83,0,0,1-13.75-4.43L52.68,412c2.38,3.09,5.1,4.66,8,4.66,2.38,0,3.57-1,3.57-2.95S63.11,411,60.73,411H51.35V391H74.62v8.47Z"/><path class="cls-11" d="M60.9,398.89v3.52h1.48c8,0,13.28,3.9,13.28,10,0,7.19-5.57,11.85-14.14,11.85a24.92,24.92,0,0,1-13.75-4.42l4.38-8.38c2.38,3.1,5.09,4.67,8,4.67,2.38,0,3.57-1,3.57-2.95s-1.19-2.72-3.57-2.72H50.82v-20H74.09v8.47Z"/><path class="cls-12" d="M60.37,398.35v3.52h1.47c8,0,13.28,3.91,13.28,10,0,7.18-5.57,11.85-14.13,11.85a24.83,24.83,0,0,1-13.75-4.43l4.37-8.37c2.38,3.09,5.09,4.66,8,4.66,2.38,0,3.57-1,3.57-2.95s-1.19-2.71-3.57-2.71H50.28v-20H73.55v8.47Z"/><path class="cls-13" d="M59.83,397.82v3.52h1.48c8,0,13.27,3.9,13.27,10,0,7.19-5.56,11.85-14.13,11.85a24.83,24.83,0,0,1-13.75-4.43l4.38-8.37c2.38,3.09,5.09,4.66,8,4.66,2.38,0,3.57-1,3.57-3s-1.19-2.71-3.57-2.71H49.74v-20H73v8.47Z"/><path class="cls-14" d="M59.3,397.28v3.52h1.47c8,0,13.28,3.9,13.28,10,0,7.18-5.57,11.84-14.14,11.84a24.92,24.92,0,0,1-13.75-4.42l4.38-8.38c2.38,3.1,5.09,4.67,8,4.67,2.38,0,3.57-1,3.57-2.95s-1.19-2.72-3.57-2.72H49.21v-20H72.48v8.47Z"/><path class="cls-15" d="M58.76,396.74v3.53h1.47c8.05,0,13.28,3.9,13.28,10,0,7.18-5.57,11.85-14.13,11.85a24.83,24.83,0,0,1-13.75-4.43L50,409.31c2.38,3.09,5.1,4.66,8,4.66,2.38,0,3.56-1,3.56-3s-1.18-2.71-3.56-2.71H48.67v-20H71.94v8.47Z"/><path class="cls-16" d="M58.22,396.21v3.52H59.7c8,0,13.28,3.9,13.28,10,0,7.19-5.57,11.85-14.14,11.85a24.9,24.9,0,0,1-13.75-4.42l4.38-8.38c2.38,3.09,5.09,4.66,8,4.66,2.38,0,3.57-1,3.57-2.95,0-1.8-1.19-2.71-3.57-2.71H48.14v-20H71.4v8.47Z"/><path class="cls-17" d="M57.69,395.67v3.52h1.47c8,0,13.28,3.91,13.28,10,0,7.18-5.57,11.85-14.13,11.85a25,25,0,0,1-13.76-4.43l4.38-8.38c2.38,3.1,5.09,4.67,8,4.67,2.38,0,3.57-1,3.57-2.95s-1.19-2.71-3.57-2.71H47.6v-20H70.87v8.47Z"/><path class="cls-18" d="M57.15,395.14v3.52h1.48c8,0,13.27,3.9,13.27,10,0,7.19-5.57,11.85-14.13,11.85A24.83,24.83,0,0,1,44,416.07l4.38-8.37c2.37,3.09,5.09,4.66,8,4.66,2.38,0,3.57-1,3.57-2.95s-1.19-2.71-3.57-2.71H47.06v-20H70.33v8.47Z"/><path class="cls-19" d="M56.62,394.6v3.52h1.47c8,0,13.28,3.9,13.28,10,0,7.19-5.57,11.85-14.14,11.85a24.92,24.92,0,0,1-13.75-4.42l4.38-8.38c2.38,3.1,5.09,4.67,8,4.67,2.38,0,3.57-1,3.57-2.95s-1.19-2.72-3.57-2.72H46.53v-20H69.8v8.47Z"/><path class="cls-20" d="M56.08,394.06v3.53h1.47c8,0,13.28,3.9,13.28,10,0,7.18-5.57,11.85-14.13,11.85A24.83,24.83,0,0,1,43,415l4.37-8.37c2.38,3.09,5.09,4.66,8,4.66,2.37,0,3.56-1,3.56-3s-1.19-2.71-3.56-2.71H46v-20H69.26v8.47Z"/><path class="cls-21" d="M55.54,393.53v3.52H57c8,0,13.27,3.9,13.27,10,0,7.19-5.56,11.85-14.13,11.85a24.9,24.9,0,0,1-13.75-4.42l4.38-8.38c2.38,3.09,5.09,4.66,8,4.66,2.38,0,3.57-1,3.57-2.95s-1.19-2.71-3.57-2.71H45.46v-20H68.72v8.47Z"/><path class="cls-22" d="M55,393v3.52h1.47c8,0,13.28,3.91,13.28,10,0,7.18-5.57,11.84-14.14,11.84a24.92,24.92,0,0,1-13.75-4.42l4.38-8.38c2.38,3.1,5.09,4.67,8,4.67,2.38,0,3.57-1,3.57-3s-1.19-2.71-3.57-2.71H44.92v-20H68.19V393Z"/><path class="cls-23" d="M54.47,392.46V396H56c8,0,13.27,3.9,13.27,10,0,7.19-5.57,11.85-14.13,11.85a24.83,24.83,0,0,1-13.75-4.43L45.71,405c2.38,3.09,5.1,4.66,8,4.66,2.38,0,3.57-1,3.57-2.95S56.14,404,53.76,404H44.38V384H67.65v8.47Z"/><path class="cls-24" d="M53.93,391.92v3.52h1.48c8,0,13.28,3.9,13.28,10,0,7.19-5.57,11.85-14.14,11.85a24.9,24.9,0,0,1-13.75-4.42l4.38-8.38c2.38,3.09,5.09,4.67,8,4.67,2.38,0,3.57-1,3.57-2.95s-1.19-2.72-3.57-2.72H43.85v-20H67.12v8.47Z"/><path class="cls-25" d="M53.4,391.38v3.52h1.47c8,0,13.28,3.91,13.28,10,0,7.18-5.57,11.85-14.13,11.85a24.89,24.89,0,0,1-13.76-4.43L44.64,404c2.38,3.09,5.09,4.66,8,4.66,2.38,0,3.57-1,3.57-2.95S55.06,403,52.68,403H43.31v-20H66.58v8.47Z"/><path class="cls-26" d="M52.86,390.85v3.52h1.48c8,0,13.27,3.9,13.27,10,0,7.19-5.56,11.85-14.13,11.85a24.83,24.83,0,0,1-13.75-4.43l4.38-8.37c2.38,3.09,5.09,4.66,8,4.66,2.38,0,3.57-1,3.57-2.95s-1.19-2.71-3.57-2.71H42.77v-20H66v8.47Z"/><path class="cls-27" d="M52.33,390.31v3.52H53.8c8,0,13.28,3.9,13.28,10,0,7.18-5.57,11.84-14.14,11.84a24.92,24.92,0,0,1-13.75-4.42l4.38-8.38c2.38,3.1,5.09,4.67,8,4.67,2.38,0,3.57-1,3.57-3s-1.19-2.72-3.57-2.72H42.24v-20H65.51v8.47Z"/><path class="cls-28" d="M51.79,389.77v3.53h1.47c8.05,0,13.28,3.9,13.28,10,0,7.18-5.57,11.85-14.13,11.85a24.83,24.83,0,0,1-13.75-4.43L43,402.34c2.38,3.09,5.1,4.66,8,4.66,2.38,0,3.56-1,3.56-2.95s-1.18-2.71-3.56-2.71H41.7v-20H65v8.47Z"/><path class="cls-29" d="M51.25,389.24v3.52h1.48c8,0,13.28,3.9,13.28,10,0,7.19-5.57,11.85-14.14,11.85a24.9,24.9,0,0,1-13.75-4.42l4.38-8.38c2.38,3.09,5.09,4.66,8,4.66,2.38,0,3.57-1,3.57-2.95,0-1.8-1.19-2.71-3.57-2.71H41.17v-20H64.43v8.47Z"/><path class="cls-30" d="M50.72,388.7v3.52h1.47c8,0,13.28,3.91,13.28,10,0,7.18-5.57,11.85-14.13,11.85a25,25,0,0,1-13.76-4.43L42,401.26c2.38,3.1,5.09,4.67,8,4.67,2.38,0,3.57-1,3.57-2.95s-1.19-2.71-3.57-2.71H40.63v-20H63.9v8.47Z"/><path class="cls-31" d="M50.18,388.17v3.52h1.48c8,0,13.27,3.9,13.27,10,0,7.19-5.57,11.85-14.13,11.85a24.83,24.83,0,0,1-13.75-4.43l4.38-8.37c2.37,3.09,5.09,4.66,8,4.66,2.38,0,3.57-1,3.57-2.95s-1.19-2.71-3.57-2.71H40.09v-20H63.36v8.47Z"/><path class="cls-32" d="M49.64,387.63v3.52h1.48c8,0,13.28,3.9,13.28,10,0,7.19-5.57,11.85-14.14,11.85a24.92,24.92,0,0,1-13.75-4.42l4.38-8.38c2.38,3.1,5.09,4.67,8,4.67,2.38,0,3.57-1,3.57-2.95s-1.19-2.72-3.57-2.72H39.56v-20H62.83v8.47Z"/><path class="cls-33" d="M49.11,387.09v3.53h1.47c8.05,0,13.28,3.9,13.28,10,0,7.18-5.57,11.85-14.13,11.85A24.83,24.83,0,0,1,36,408l4.37-8.37c2.38,3.09,5.09,4.66,8,4.66,2.37,0,3.56-1,3.56-2.95s-1.19-2.71-3.56-2.71H39v-20H62.29v8.47Z"/><path class="cls-34" d="M48.57,386.56v3.52h1.48c8,0,13.27,3.9,13.27,10,0,7.19-5.56,11.85-14.13,11.85a24.9,24.9,0,0,1-13.75-4.42l4.38-8.38c2.38,3.09,5.09,4.66,8,4.66,2.38,0,3.57-1,3.57-2.95s-1.19-2.71-3.57-2.71H38.48v-20H61.75v8.47Z"/><path class="cls-35" d="M48,386v3.52h1.47c8,0,13.28,3.9,13.28,10,0,7.18-5.57,11.84-14.14,11.84A24.92,24.92,0,0,1,34.9,407l4.38-8.38c2.38,3.1,5.09,4.67,8,4.67,2.38,0,3.57-1,3.57-2.95s-1.19-2.72-3.57-2.72H38v-20H61.22V386Z"/><path class="cls-36" d="M47.5,385.49V389H49c8,0,13.27,3.9,13.27,10,0,7.19-5.57,11.85-14.13,11.85a24.83,24.83,0,0,1-13.75-4.43l4.37-8.37c2.38,3.09,5.1,4.66,8,4.66,2.38,0,3.57-1,3.57-2.95s-1.19-2.71-3.57-2.71H37.41V377H60.68v8.47Z"/><path class="cls-37" d="M47,385v3.52h1.48c8,0,13.28,3.9,13.28,10,0,7.19-5.57,11.85-14.14,11.85a24.9,24.9,0,0,1-13.75-4.42l4.38-8.38c2.38,3.09,5.09,4.67,8,4.67,2.38,0,3.57-1,3.57-3,0-1.8-1.19-2.71-3.57-2.71H36.88v-20H60.15V385Z"/><path class="cls-38" d="M46.43,384.41v3.52H47.9c8,0,13.28,3.91,13.28,10,0,7.18-5.57,11.85-14.13,11.85a25,25,0,0,1-13.76-4.43L37.67,397c2.38,3.09,5.09,4.66,8,4.66,2.38,0,3.57-1,3.57-2.95S48.09,396,45.71,396H36.34v-20H59.61v8.47Z"/><path class="cls-39" d="M45.89,383.88v3.52h1.48c8,0,13.27,3.9,13.27,10,0,7.19-5.56,11.85-14.13,11.85a24.83,24.83,0,0,1-13.75-4.43l4.38-8.37c2.38,3.09,5.09,4.66,8,4.66,2.38,0,3.57-1,3.57-3s-1.19-2.71-3.57-2.71H35.8v-20H59.07v8.47Z"/><path class="cls-40" d="M45.36,383.34v3.52h1.47c8,0,13.28,3.9,13.28,10,0,7.19-5.57,11.85-14.14,11.85a24.92,24.92,0,0,1-13.75-4.42l4.38-8.38c2.38,3.1,5.09,4.67,8,4.67,2.38,0,3.57-1,3.57-2.95S47,394.9,44.64,394.9H35.27v-20H58.54v8.47Z"/><path class="cls-41" d="M44.82,382.8v3.53h1.47c8.05,0,13.28,3.9,13.28,10,0,7.18-5.57,11.85-14.13,11.85a24.83,24.83,0,0,1-13.75-4.43l4.37-8.37c2.38,3.09,5.1,4.66,8,4.66,2.38,0,3.56-1,3.56-2.95s-1.18-2.71-3.56-2.71H34.73v-20H58v8.47Z"/><path class="cls-42" d="M44.28,382.27v3.52h1.48c8,0,13.27,3.9,13.27,10,0,7.19-5.56,11.85-14.13,11.85a24.9,24.9,0,0,1-13.75-4.42l4.38-8.38c2.38,3.09,5.09,4.66,8,4.66,2.38,0,3.57-1,3.57-2.95s-1.19-2.71-3.57-2.71H34.2v-20H57.46v8.47Z"/><path class="cls-43" d="M43.75,381.73v3.52h1.47c8,0,13.28,3.91,13.28,10,0,7.18-5.57,11.85-14.13,11.85a25,25,0,0,1-13.76-4.43L35,394.29c2.38,3.1,5.09,4.67,8,4.67,2.38,0,3.57-1,3.57-2.95S45.41,393.3,43,393.3H33.66v-20H56.93v8.47Z"/><path class="cls-44" d="M43.21,381.2v3.52h1.48c8,0,13.27,3.9,13.27,10,0,7.19-5.57,11.85-14.13,11.85a24.83,24.83,0,0,1-13.75-4.43l4.38-8.37c2.37,3.09,5.09,4.66,8,4.66,2.38,0,3.57-1,3.57-2.95s-1.19-2.71-3.57-2.71H33.12v-20H56.39v8.47Z"/><path class="cls-45" d="M42.67,380.66v3.52h1.48c8,0,13.28,3.9,13.28,10,0,7.19-5.57,11.85-14.14,11.85a24.92,24.92,0,0,1-13.75-4.42l4.38-8.38c2.38,3.1,5.09,4.67,8,4.67,2.38,0,3.57-1,3.57-2.95s-1.19-2.72-3.57-2.72H32.59v-20H55.86v8.47Z"/><path class="cls-46" d="M42.14,380.12v3.52h1.47c8,0,13.28,3.91,13.28,10,0,7.18-5.57,11.85-14.13,11.85A24.83,24.83,0,0,1,29,401.06l4.37-8.37c2.38,3.09,5.09,4.66,8,4.66,2.37,0,3.56-1,3.56-3s-1.19-2.71-3.56-2.71H32.05v-20H55.32v8.47Z"/><path class="cls-47" d="M41.6,379.59v3.52h1.48c8,0,13.27,3.9,13.27,10,0,7.19-5.56,11.85-14.13,11.85a24.9,24.9,0,0,1-13.75-4.42l4.38-8.38c2.38,3.09,5.09,4.66,8,4.66,2.38,0,3.57-1,3.57-2.95s-1.19-2.71-3.57-2.71H31.51v-20H54.78v8.47Z"/><path class="cls-48" d="M41.07,379.05v3.52h1.47c8,0,13.28,3.9,13.28,10,0,7.18-5.57,11.84-14.14,11.84A24.92,24.92,0,0,1,27.93,400l4.38-8.38c2.38,3.1,5.09,4.67,8,4.67,2.38,0,3.57-1,3.57-2.95s-1.19-2.72-3.57-2.72H31v-20H54.25v8.47Z"/><path class="cls-49" d="M40.53,378.52V382H42c8,0,13.27,3.9,13.27,10,0,7.18-5.57,11.85-14.13,11.85a24.83,24.83,0,0,1-13.75-4.43l4.37-8.37c2.38,3.09,5.1,4.66,8.05,4.66,2.38,0,3.57-1,3.57-2.95s-1.19-2.71-3.57-2.71H30.44v-20H53.71v8.47Z"/><path class="cls-50" d="M40,378v3.52h1.48c8,0,13.28,3.9,13.28,10,0,7.19-5.57,11.85-14.14,11.85a24.9,24.9,0,0,1-13.75-4.42l4.38-8.38c2.38,3.09,5.09,4.66,8,4.66,2.38,0,3.57-1,3.57-2.95,0-1.8-1.19-2.71-3.57-2.71H29.91v-20H53.18V378Z"/><path class="cls-51" d="M39.46,377.44V381h1.47c8,0,13.28,3.91,13.28,10,0,7.18-5.57,11.85-14.13,11.85a25,25,0,0,1-13.76-4.43L30.7,390c2.38,3.1,5.09,4.67,8,4.67,2.38,0,3.57-1,3.57-2.95S41.12,389,38.74,389H29.37V369H52.64v8.47Z"/><path class="cls-52" d="M38.92,376.91v3.52H40.4c8,0,13.27,3.9,13.27,10,0,7.19-5.56,11.85-14.13,11.85a24.83,24.83,0,0,1-13.75-4.43l4.38-8.37c2.38,3.09,5.09,4.66,8,4.66,2.38,0,3.57-1,3.57-2.95s-1.19-2.71-3.57-2.71H28.83v-20H52.1v8.47Z"/><path class="cls-53" d="M38.39,376.37v3.52h1.47c8,0,13.28,3.9,13.28,10,0,7.19-5.57,11.85-14.14,11.85a24.92,24.92,0,0,1-13.75-4.42l4.38-8.38c2.38,3.1,5.09,4.67,8,4.67,2.38,0,3.57-1,3.57-3s-1.19-2.72-3.57-2.72H28.3v-20H51.57v8.47Z"/><path class="cls-54" d="M37.85,375.83v3.53h1.47c8,0,13.28,3.9,13.28,10,0,7.18-5.57,11.85-14.13,11.85a24.83,24.83,0,0,1-13.75-4.43l4.37-8.37c2.38,3.09,5.1,4.66,8.05,4.66,2.37,0,3.56-1,3.56-2.95s-1.19-2.71-3.56-2.71H27.76v-20H51v8.47Z"/><path class="cls-55" d="M37.31,375.3v3.52h1.48c8,0,13.27,3.9,13.27,10,0,7.19-5.56,11.85-14.13,11.85a24.9,24.9,0,0,1-13.75-4.42l4.38-8.38c2.38,3.09,5.09,4.66,8,4.66,2.38,0,3.57-1,3.57-2.95s-1.19-2.71-3.57-2.71H27.23v-20H50.49v8.47Z"/><path class="cls-56" d="M36.78,374.76v3.52h1.47c8,0,13.28,3.91,13.28,10,0,7.18-5.57,11.84-14.13,11.84a24.93,24.93,0,0,1-13.76-4.42L28,387.32c2.38,3.1,5.09,4.67,8,4.67,2.38,0,3.57-1,3.57-2.95s-1.19-2.71-3.57-2.71H26.69v-20H50v8.47Z"/><path d="M36.24,374.23v3.52h1.48c8,0,13.27,3.9,13.27,10,0,7.19-5.57,11.85-14.13,11.85a24.83,24.83,0,0,1-13.75-4.43l4.38-8.37c2.37,3.09,5.09,4.66,8,4.66,2.38,0,3.57-1,3.57-2.95s-1.19-2.71-3.57-2.71H26.15v-20H49.42v8.47Z"/></g><text class="cls-57" transform="translate(22.77 399.11)">5</text></g><circle class="cls-61" cx="37.5" cy="467.56" r="37.5"/><circle class="cls-1" cx="37.5" cy="467.56" r="37.5"/><g class="cls-62"><g class="cls-5"><path class="cls-6" d="M62.56,501.19q0,3,3.29,3c2.14,0,3.23-1,3.23-3.05s-1-2.95-3.19-2.95S62.56,499.19,62.56,501.19Zm16.37-19.6-4.19,7.71a10.16,10.16,0,0,0-6.66-2.19c-4.28,0-6.47,1.85-6.47,5.56a9.6,9.6,0,0,1,6.9-2.47c6.52,0,10.8,4.47,10.8,11,0,7.19-5.23,11.76-13.08,11.76-9.43,0-15.14-6.57-15.14-16.8,0-10.61,6.43-17.51,16.33-17.51A23.31,23.31,0,0,1,78.93,481.59Z"/><path class="cls-7" d="M62,500.66q0,3,3.28,3c2.14,0,3.24-1,3.24-3s-1-2.95-3.19-2.95S62,498.66,62,500.66ZM78.4,481.05l-4.19,7.71a10.2,10.2,0,0,0-6.66-2.19c-4.29,0-6.48,1.86-6.48,5.57a9.62,9.62,0,0,1,6.9-2.48c6.52,0,10.81,4.48,10.81,11,0,7.18-5.24,11.75-13.09,11.75-9.42,0-15.13-6.57-15.13-16.8C50.56,485,57,478.1,66.88,478.1A23.38,23.38,0,0,1,78.4,481.05Z"/><path class="cls-8" d="M61.49,500.12q0,3,3.28,3c2.14,0,3.24-1,3.24-3.05s-1.05-2.95-3.19-2.95S61.49,498.12,61.49,500.12Zm16.37-19.61-4.19,7.71A10.23,10.23,0,0,0,67,486c-4.28,0-6.47,1.86-6.47,5.57a9.6,9.6,0,0,1,6.9-2.47c6.52,0,10.8,4.47,10.8,11,0,7.19-5.23,11.75-13.09,11.75-9.42,0-15.13-6.56-15.13-16.79,0-10.62,6.43-17.52,16.32-17.52A23.43,23.43,0,0,1,77.86,480.51Z"/><path class="cls-9" d="M61,499.58q0,3,3.29,3c2.14,0,3.23-1,3.23-3s-1-3-3.19-3S61,497.59,61,499.58ZM77.32,480l-4.18,7.71a10.2,10.2,0,0,0-6.67-2.19c-4.28,0-6.47,1.85-6.47,5.57a9.62,9.62,0,0,1,6.9-2.48c6.52,0,10.8,4.47,10.8,11,0,7.19-5.23,11.76-13.08,11.76-9.42,0-15.13-6.57-15.13-16.8,0-10.61,6.42-17.51,16.32-17.51A23.31,23.31,0,0,1,77.32,480Z"/><path class="cls-10" d="M60.42,499.05q0,3,3.28,3c2.14,0,3.24-1,3.24-3.05s-1-2.95-3.19-2.95S60.42,497.05,60.42,499.05Zm16.37-19.61-4.19,7.71A10.25,10.25,0,0,0,65.94,485c-4.29,0-6.47,1.86-6.47,5.57a9.58,9.58,0,0,1,6.9-2.47c6.51,0,10.8,4.47,10.8,11,0,7.18-5.24,11.75-13.09,11.75C54.66,510.8,49,504.23,49,494c0-10.61,6.42-17.51,16.32-17.51A23.38,23.38,0,0,1,76.79,479.44Z"/><path class="cls-11" d="M59.88,498.51c0,2,1.1,3,3.28,3s3.24-1,3.24-3.05-1.05-2.95-3.19-2.95S59.88,496.51,59.88,498.51Zm16.37-19.6-4.19,7.71a10.18,10.18,0,0,0-6.66-2.19c-4.28,0-6.47,1.85-6.47,5.56a9.6,9.6,0,0,1,6.9-2.47c6.52,0,10.8,4.47,10.8,11,0,7.19-5.23,11.76-13.09,11.76-9.42,0-15.13-6.57-15.13-16.8,0-10.61,6.43-17.51,16.32-17.51A23.32,23.32,0,0,1,76.25,478.91Z"/><path class="cls-12" d="M59.35,498q0,3,3.28,3c2.14,0,3.23-1,3.23-3s-1-2.95-3.18-2.95S59.35,496,59.35,498Zm16.36-19.61-4.18,7.71a10.2,10.2,0,0,0-6.67-2.19c-4.28,0-6.47,1.86-6.47,5.57a9.62,9.62,0,0,1,6.9-2.48c6.52,0,10.8,4.48,10.8,11,0,7.18-5.23,11.75-13.08,11.75-9.42,0-15.13-6.57-15.13-16.8,0-10.61,6.42-17.51,16.32-17.51A23.31,23.31,0,0,1,75.71,478.37Z"/><path class="cls-13" d="M58.81,497.44q0,3,3.28,3c2.14,0,3.24-1,3.24-3.05s-1-2.95-3.19-2.95S58.81,495.44,58.81,497.44Zm16.37-19.61L71,485.54a10.23,10.23,0,0,0-6.66-2.19c-4.28,0-6.47,1.86-6.47,5.57a9.58,9.58,0,0,1,6.9-2.47c6.52,0,10.8,4.47,10.8,11,0,7.18-5.24,11.75-13.09,11.75-9.42,0-15.13-6.56-15.13-16.79,0-10.62,6.42-17.52,16.32-17.52A23.43,23.43,0,0,1,75.18,477.83Z"/><path class="cls-14" d="M58.27,496.9q0,3,3.29,3c2.14,0,3.23-1,3.23-3s-1.05-2.95-3.19-2.95S58.27,494.9,58.27,496.9Zm16.37-19.6L70.45,485a10.16,10.16,0,0,0-6.66-2.19c-4.28,0-6.47,1.85-6.47,5.57a9.62,9.62,0,0,1,6.9-2.48c6.52,0,10.8,4.47,10.8,11,0,7.19-5.23,11.76-13.08,11.76-9.43,0-15.14-6.57-15.14-16.8,0-10.61,6.43-17.51,16.33-17.51A23.31,23.31,0,0,1,74.64,477.3Z"/><path class="cls-15" d="M57.74,496.37c0,2,1.09,3,3.28,3s3.24-1,3.24-3-1.05-2.95-3.19-2.95S57.74,494.37,57.74,496.37Zm16.37-19.61-4.19,7.71a10.25,10.25,0,0,0-6.66-2.19c-4.29,0-6.47,1.86-6.47,5.57a9.57,9.57,0,0,1,6.89-2.48c6.52,0,10.81,4.48,10.81,11,0,7.18-5.24,11.75-13.09,11.75-9.42,0-15.13-6.57-15.13-16.8,0-10.61,6.42-17.51,16.32-17.51A23.38,23.38,0,0,1,74.11,476.76Z"/><path class="cls-16" d="M57.2,495.83c0,2,1.1,3,3.28,3s3.24-1,3.24-3.05-1-2.95-3.19-2.95S57.2,493.83,57.2,495.83Zm16.37-19.6-4.19,7.7a10.23,10.23,0,0,0-6.66-2.18c-4.28,0-6.47,1.85-6.47,5.56a9.6,9.6,0,0,1,6.9-2.47c6.52,0,10.8,4.47,10.8,11,0,7.19-5.23,11.75-13.09,11.75-9.42,0-15.13-6.56-15.13-16.79,0-10.61,6.43-17.51,16.32-17.51A23.32,23.32,0,0,1,73.57,476.23Z"/><path class="cls-17" d="M56.66,495.29q0,3,3.29,3c2.14,0,3.23-1,3.23-3s-1-2.95-3.18-2.95S56.66,493.3,56.66,495.29ZM73,475.69l-4.18,7.71a10.2,10.2,0,0,0-6.67-2.19c-4.28,0-6.47,1.85-6.47,5.57a9.62,9.62,0,0,1,6.9-2.48c6.52,0,10.8,4.48,10.8,11,0,7.19-5.23,11.76-13.08,11.76-9.42,0-15.13-6.57-15.13-16.8,0-10.61,6.42-17.51,16.32-17.51A23.31,23.31,0,0,1,73,475.69Z"/><path class="cls-18" d="M56.13,494.76q0,3,3.28,3c2.14,0,3.24-1,3.24-3.05s-1-2.95-3.19-2.95S56.13,492.76,56.13,494.76ZM72.5,475.15l-4.19,7.71a10.25,10.25,0,0,0-6.66-2.19c-4.28,0-6.47,1.86-6.47,5.57a9.58,9.58,0,0,1,6.9-2.47c6.52,0,10.8,4.47,10.8,11,0,7.18-5.24,11.75-13.09,11.75-9.42,0-15.13-6.56-15.13-16.8,0-10.61,6.42-17.51,16.32-17.51A23.46,23.46,0,0,1,72.5,475.15Z"/><path class="cls-19" d="M55.59,494.22q0,3,3.29,3c2.14,0,3.23-1,3.23-3.05s-1-2.95-3.19-2.95S55.59,492.22,55.59,494.22ZM72,474.62l-4.19,7.71a10.16,10.16,0,0,0-6.66-2.19c-4.28,0-6.47,1.85-6.47,5.56a9.6,9.6,0,0,1,6.9-2.47c6.52,0,10.8,4.47,10.8,11,0,7.19-5.23,11.76-13.08,11.76-9.43,0-15.14-6.57-15.14-16.8,0-10.61,6.43-17.51,16.33-17.51A23.31,23.31,0,0,1,72,474.62Z"/><path class="cls-20" d="M55.06,493.69q0,3,3.28,3c2.14,0,3.23-1,3.23-3s-1-2.95-3.18-2.95S55.06,491.69,55.06,493.69Zm16.36-19.61-4.18,7.71a10.2,10.2,0,0,0-6.66-2.19c-4.29,0-6.48,1.86-6.48,5.57a9.62,9.62,0,0,1,6.9-2.48c6.52,0,10.81,4.48,10.81,11,0,7.18-5.24,11.75-13.09,11.75-9.42,0-15.13-6.57-15.13-16.8,0-10.61,6.42-17.51,16.32-17.51A23.31,23.31,0,0,1,71.42,474.08Z"/><path class="cls-21" d="M54.52,493.15q0,3,3.28,3c2.14,0,3.24-1,3.24-3s-1-3-3.19-3S54.52,491.15,54.52,493.15Zm16.37-19.61-4.19,7.71A10.23,10.23,0,0,0,60,479.06c-4.28,0-6.47,1.86-6.47,5.57a9.6,9.6,0,0,1,6.9-2.47c6.52,0,10.8,4.47,10.8,11,0,7.19-5.23,11.75-13.09,11.75-9.42,0-15.13-6.56-15.13-16.79,0-10.62,6.43-17.52,16.32-17.52A23.43,23.43,0,0,1,70.89,473.54Z"/><path class="cls-22" d="M54,492.61q0,3,3.29,3c2.14,0,3.23-1,3.23-3s-1-2.95-3.19-2.95S54,490.62,54,492.61ZM70.35,473l-4.18,7.71a10.2,10.2,0,0,0-6.67-2.19c-4.28,0-6.47,1.85-6.47,5.57a9.62,9.62,0,0,1,6.9-2.48c6.52,0,10.8,4.47,10.8,11,0,7.19-5.23,11.76-13.08,11.76-9.42,0-15.13-6.57-15.13-16.8,0-10.61,6.42-17.51,16.32-17.51A23.31,23.31,0,0,1,70.35,473Z"/><path class="cls-23" d="M53.45,492.08q0,3,3.28,3c2.14,0,3.24-1,3.24-3.05s-1-2.95-3.19-2.95S53.45,490.08,53.45,492.08Zm16.37-19.61-4.19,7.71A10.25,10.25,0,0,0,59,478c-4.29,0-6.47,1.86-6.47,5.57a9.58,9.58,0,0,1,6.9-2.47c6.51,0,10.8,4.47,10.8,11,0,7.18-5.24,11.75-13.09,11.75C47.69,503.83,42,497.26,42,487c0-10.61,6.42-17.51,16.32-17.51A23.38,23.38,0,0,1,69.82,472.47Z"/><path class="cls-24" d="M52.91,491.54c0,2,1.1,3,3.28,3s3.24-1,3.24-3.05-1-2.95-3.19-2.95S52.91,489.54,52.91,491.54Zm16.37-19.6-4.19,7.7a10.23,10.23,0,0,0-6.66-2.18c-4.28,0-6.47,1.85-6.47,5.56a9.6,9.6,0,0,1,6.9-2.47c6.52,0,10.8,4.47,10.8,11,0,7.19-5.23,11.75-13.09,11.75-9.42,0-15.13-6.56-15.13-16.79,0-10.61,6.43-17.51,16.32-17.51A23.32,23.32,0,0,1,69.28,471.94Z"/><path class="cls-25" d="M52.37,491q0,3,3.29,3c2.14,0,3.23-1,3.23-3s-1-2.95-3.18-2.95S52.37,489,52.37,491ZM68.74,471.4l-4.18,7.71a10.2,10.2,0,0,0-6.67-2.19c-4.28,0-6.47,1.86-6.47,5.57a9.62,9.62,0,0,1,6.9-2.48c6.52,0,10.8,4.48,10.8,11,0,7.18-5.23,11.75-13.08,11.75-9.42,0-15.13-6.57-15.13-16.8,0-10.61,6.42-17.51,16.32-17.51A23.31,23.31,0,0,1,68.74,471.4Z"/><path class="cls-26" d="M51.84,490.47q0,3,3.28,3c2.14,0,3.24-1,3.24-3.05s-1-2.95-3.19-2.95S51.84,488.47,51.84,490.47Zm16.37-19.61L64,478.57a10.23,10.23,0,0,0-6.66-2.19c-4.28,0-6.47,1.86-6.47,5.57a9.58,9.58,0,0,1,6.9-2.47c6.52,0,10.8,4.47,10.8,11,0,7.18-5.24,11.75-13.09,11.75-9.42,0-15.13-6.56-15.13-16.79,0-10.62,6.42-17.52,16.32-17.52A23.43,23.43,0,0,1,68.21,470.86Z"/><path class="cls-27" d="M51.3,489.93q0,3,3.29,3c2.14,0,3.23-1,3.23-3s-1-2.95-3.19-2.95S51.3,487.93,51.3,489.93Zm16.37-19.6L63.48,478a10.16,10.16,0,0,0-6.66-2.19c-4.28,0-6.47,1.85-6.47,5.57a9.6,9.6,0,0,1,6.9-2.48c6.52,0,10.8,4.47,10.8,11,0,7.19-5.23,11.76-13.08,11.76-9.43,0-15.14-6.57-15.14-16.8,0-10.61,6.43-17.51,16.33-17.51A23.31,23.31,0,0,1,67.67,470.33Z"/><path class="cls-28" d="M50.77,489.4c0,2,1.09,3,3.28,3s3.24-1,3.24-3-1-3-3.19-3S50.77,487.4,50.77,489.4Zm16.37-19.61L63,477.5a10.25,10.25,0,0,0-6.66-2.19c-4.29,0-6.48,1.86-6.48,5.57a9.62,9.62,0,0,1,6.9-2.48c6.52,0,10.81,4.48,10.81,11,0,7.18-5.24,11.75-13.09,11.75-9.42,0-15.13-6.57-15.13-16.8,0-10.61,6.42-17.51,16.32-17.51A23.38,23.38,0,0,1,67.14,469.79Z"/><path class="cls-29" d="M50.23,488.86q0,3,3.28,3c2.14,0,3.24-1,3.24-3.05s-1-2.95-3.19-2.95S50.23,486.86,50.23,488.86Zm16.37-19.6L62.41,477a10.23,10.23,0,0,0-6.66-2.18c-4.28,0-6.47,1.85-6.47,5.56a9.6,9.6,0,0,1,6.9-2.47c6.52,0,10.8,4.47,10.8,11,0,7.19-5.23,11.75-13.09,11.75-9.42,0-15.13-6.56-15.13-16.79,0-10.61,6.43-17.51,16.32-17.51A23.32,23.32,0,0,1,66.6,469.26Z"/><path class="cls-30" d="M49.69,488.32q0,3,3.29,3c2.14,0,3.23-1,3.23-3s-1-2.95-3.18-2.95S49.69,486.33,49.69,488.32Zm16.37-19.6-4.18,7.71a10.2,10.2,0,0,0-6.67-2.19c-4.28,0-6.47,1.85-6.47,5.57a9.62,9.62,0,0,1,6.9-2.48c6.52,0,10.8,4.48,10.8,11,0,7.19-5.23,11.76-13.08,11.76-9.42,0-15.13-6.57-15.13-16.8,0-10.61,6.42-17.51,16.32-17.51A23.31,23.31,0,0,1,66.06,468.72Z"/><path class="cls-31" d="M49.16,487.79q0,3,3.28,3c2.14,0,3.24-1,3.24-3.05s-1-2.95-3.19-2.95S49.16,485.79,49.16,487.79Zm16.37-19.61-4.19,7.71a10.25,10.25,0,0,0-6.66-2.19c-4.28,0-6.47,1.86-6.47,5.57a9.58,9.58,0,0,1,6.9-2.47c6.52,0,10.8,4.47,10.8,11,0,7.18-5.24,11.75-13.09,11.75-9.42,0-15.13-6.56-15.13-16.8,0-10.61,6.42-17.51,16.32-17.51A23.38,23.38,0,0,1,65.53,468.18Z"/><path class="cls-32" d="M48.62,487.25c0,2,1.1,3,3.28,3s3.24-1,3.24-3.05-1-2.95-3.19-2.95S48.62,485.25,48.62,487.25ZM65,467.65l-4.19,7.71a10.16,10.16,0,0,0-6.66-2.19c-4.28,0-6.47,1.85-6.47,5.56a9.6,9.6,0,0,1,6.9-2.47c6.52,0,10.8,4.47,10.8,11,0,7.19-5.23,11.76-13.08,11.76-9.43,0-15.14-6.57-15.14-16.8,0-10.61,6.43-17.51,16.33-17.51A23.31,23.31,0,0,1,65,467.65Z"/><path class="cls-33" d="M48.09,486.72q0,3,3.28,3c2.14,0,3.23-1,3.23-3s-1-2.95-3.18-2.95S48.09,484.72,48.09,486.72Zm16.36-19.61-4.18,7.71a10.2,10.2,0,0,0-6.66-2.19c-4.29,0-6.48,1.86-6.48,5.57a9.62,9.62,0,0,1,6.9-2.48c6.52,0,10.81,4.48,10.81,11,0,7.18-5.24,11.75-13.09,11.75-9.42,0-15.13-6.57-15.13-16.8,0-10.61,6.42-17.51,16.32-17.51A23.31,23.31,0,0,1,64.45,467.11Z"/><path class="cls-34" d="M47.55,486.18q0,3,3.28,3c2.14,0,3.24-1,3.24-3.05s-1-2.95-3.19-2.95S47.55,484.18,47.55,486.18Zm16.37-19.61-4.19,7.71a10.23,10.23,0,0,0-6.66-2.19c-4.28,0-6.47,1.86-6.47,5.57a9.58,9.58,0,0,1,6.9-2.47c6.52,0,10.8,4.47,10.8,11,0,7.19-5.24,11.75-13.09,11.75-9.42,0-15.13-6.56-15.13-16.79,0-10.62,6.43-17.52,16.32-17.52A23.43,23.43,0,0,1,63.92,466.57Z"/><path class="cls-35" d="M47,485.64q0,3,3.29,3c2.14,0,3.23-1,3.23-3s-1-3-3.19-3S47,483.64,47,485.64ZM63.38,466l-4.19,7.71a10.16,10.16,0,0,0-6.66-2.19c-4.28,0-6.47,1.85-6.47,5.57a9.62,9.62,0,0,1,6.9-2.48c6.52,0,10.8,4.47,10.8,11,0,7.19-5.23,11.76-13.08,11.76-9.42,0-15.13-6.57-15.13-16.8,0-10.61,6.42-17.51,16.32-17.51A23.31,23.31,0,0,1,63.38,466Z"/><path class="cls-36" d="M46.48,485.11c0,2,1.09,3,3.28,3s3.24-1,3.24-3-1-2.95-3.19-2.95S46.48,483.11,46.48,485.11ZM62.85,465.5l-4.19,7.71A10.25,10.25,0,0,0,52,471c-4.29,0-6.47,1.86-6.47,5.57a9.58,9.58,0,0,1,6.9-2.47c6.51,0,10.8,4.47,10.8,11,0,7.18-5.24,11.75-13.09,11.75-9.42,0-15.13-6.57-15.13-16.8,0-10.61,6.42-17.51,16.32-17.51A23.38,23.38,0,0,1,62.85,465.5Z"/><path class="cls-37" d="M45.94,484.57c0,2,1.1,3,3.28,3s3.24-1,3.24-3.05-1.05-2.95-3.19-2.95S45.94,482.57,45.94,484.57ZM62.31,465l-4.19,7.7a10.23,10.23,0,0,0-6.66-2.18c-4.28,0-6.47,1.85-6.47,5.56a9.6,9.6,0,0,1,6.9-2.47c6.52,0,10.8,4.47,10.8,11,0,7.19-5.23,11.75-13.09,11.75-9.42,0-15.13-6.56-15.13-16.79,0-10.61,6.43-17.51,16.32-17.51A23.32,23.32,0,0,1,62.31,465Z"/><path class="cls-38" d="M45.4,484q0,3,3.29,3c2.14,0,3.23-1,3.23-3s-1-2.95-3.18-2.95S45.4,482,45.4,484Zm16.37-19.61-4.18,7.71A10.2,10.2,0,0,0,50.92,470c-4.28,0-6.47,1.86-6.47,5.57a9.62,9.62,0,0,1,6.9-2.48c6.52,0,10.8,4.48,10.8,11,0,7.18-5.23,11.75-13.08,11.75-9.42,0-15.13-6.57-15.13-16.8,0-10.61,6.42-17.51,16.32-17.51A23.31,23.31,0,0,1,61.77,464.43Z"/><path class="cls-39" d="M44.87,483.5q0,3,3.28,3c2.14,0,3.24-1,3.24-3.05s-1-2.95-3.19-2.95S44.87,481.5,44.87,483.5Zm16.37-19.61-4.19,7.71a10.23,10.23,0,0,0-6.66-2.19c-4.28,0-6.47,1.86-6.47,5.57a9.58,9.58,0,0,1,6.9-2.47c6.52,0,10.8,4.47,10.8,11,0,7.18-5.24,11.75-13.09,11.75-9.42,0-15.13-6.56-15.13-16.79,0-10.62,6.42-17.52,16.32-17.52A23.43,23.43,0,0,1,61.24,463.89Z"/><path class="cls-40" d="M44.33,483q0,3,3.29,3c2.14,0,3.23-1,3.23-3S49.8,480,47.66,480,44.33,481,44.33,483Zm16.37-19.6-4.19,7.71a10.16,10.16,0,0,0-6.66-2.19c-4.28,0-6.47,1.85-6.47,5.57a9.6,9.6,0,0,1,6.9-2.48c6.52,0,10.8,4.47,10.8,11,0,7.19-5.23,11.76-13.08,11.76-9.43,0-15.14-6.57-15.14-16.8,0-10.61,6.43-17.51,16.33-17.51A23.31,23.31,0,0,1,60.7,463.36Z"/><path class="cls-41" d="M43.8,482.43c0,2,1.09,3,3.28,3s3.24-1,3.24-3-1-2.95-3.19-2.95S43.8,480.43,43.8,482.43Zm16.37-19.61L56,470.53a10.25,10.25,0,0,0-6.66-2.19c-4.29,0-6.48,1.86-6.48,5.57a9.62,9.62,0,0,1,6.9-2.48c6.52,0,10.81,4.48,10.81,11,0,7.18-5.24,11.75-13.09,11.75-9.42,0-15.13-6.57-15.13-16.8,0-10.61,6.42-17.51,16.32-17.51A23.38,23.38,0,0,1,60.17,462.82Z"/><path class="cls-42" d="M43.26,481.89q0,3,3.28,3c2.14,0,3.24-1,3.24-3.05s-1.05-2.95-3.19-2.95S43.26,479.89,43.26,481.89Zm16.37-19.6L55.44,470a10.23,10.23,0,0,0-6.66-2.18c-4.28,0-6.47,1.85-6.47,5.56a9.6,9.6,0,0,1,6.9-2.47c6.52,0,10.8,4.47,10.8,11,0,7.19-5.23,11.75-13.09,11.75-9.42,0-15.13-6.56-15.13-16.79,0-10.62,6.43-17.51,16.32-17.51A23.32,23.32,0,0,1,59.63,462.29Z"/><path class="cls-43" d="M42.72,481.35q0,3,3.29,3c2.14,0,3.23-1,3.23-3s-1-2.95-3.18-2.95S42.72,479.36,42.72,481.35Zm16.37-19.6-4.18,7.71a10.2,10.2,0,0,0-6.67-2.19c-4.28,0-6.47,1.85-6.47,5.57a9.62,9.62,0,0,1,6.9-2.48c6.52,0,10.8,4.48,10.8,11,0,7.19-5.23,11.76-13.08,11.76-9.42,0-15.13-6.57-15.13-16.8,0-10.61,6.42-17.51,16.32-17.51A23.31,23.31,0,0,1,59.09,461.75Z"/><path class="cls-44" d="M42.19,480.82q0,3,3.28,3c2.14,0,3.24-1,3.24-3.05s-1.05-2.95-3.19-2.95S42.19,478.82,42.19,480.82Zm16.37-19.61-4.19,7.71a10.25,10.25,0,0,0-6.66-2.19c-4.29,0-6.47,1.86-6.47,5.57a9.58,9.58,0,0,1,6.9-2.47c6.52,0,10.8,4.47,10.8,11,0,7.18-5.24,11.75-13.09,11.75-9.42,0-15.13-6.56-15.13-16.8,0-10.61,6.42-17.51,16.32-17.51A23.38,23.38,0,0,1,58.56,461.21Z"/><path class="cls-45" d="M41.65,480.28c0,2,1.1,3,3.28,3s3.24-1,3.24-3-1.05-3-3.19-3S41.65,478.28,41.65,480.28ZM58,460.68l-4.19,7.71a10.16,10.16,0,0,0-6.66-2.19c-4.28,0-6.47,1.85-6.47,5.56a9.6,9.6,0,0,1,6.9-2.47c6.52,0,10.8,4.47,10.8,11,0,7.19-5.23,11.76-13.08,11.76-9.43,0-15.14-6.57-15.14-16.8,0-10.61,6.43-17.51,16.33-17.51A23.31,23.31,0,0,1,58,460.68Z"/><path class="cls-46" d="M41.12,479.75q0,3,3.28,3c2.14,0,3.23-1,3.23-3s-1-2.95-3.18-2.95S41.12,477.75,41.12,479.75Zm16.36-19.61-4.18,7.71a10.2,10.2,0,0,0-6.66-2.19c-4.29,0-6.48,1.86-6.48,5.57a9.62,9.62,0,0,1,6.9-2.48c6.52,0,10.81,4.48,10.81,11,0,7.18-5.24,11.75-13.09,11.75-9.42,0-15.13-6.57-15.13-16.8,0-10.61,6.42-17.51,16.32-17.51A23.31,23.31,0,0,1,57.48,460.14Z"/><path class="cls-47" d="M40.58,479.21q0,3,3.28,3c2.14,0,3.24-1,3.24-3s-1.05-3-3.19-3S40.58,477.21,40.58,479.21ZM57,459.6l-4.19,7.71a10.23,10.23,0,0,0-6.66-2.19c-4.28,0-6.47,1.86-6.47,5.57a9.58,9.58,0,0,1,6.9-2.47c6.52,0,10.8,4.47,10.8,11,0,7.19-5.24,11.75-13.09,11.75-9.42,0-15.13-6.56-15.13-16.79,0-10.62,6.42-17.52,16.32-17.52A23.43,23.43,0,0,1,57,459.6Z"/><path class="cls-48" d="M40,478.67q0,3,3.29,3c2.14,0,3.23-1,3.23-3s-1-2.95-3.19-2.95S40,476.67,40,478.67Zm16.37-19.6-4.19,7.71a10.16,10.16,0,0,0-6.66-2.19c-4.28,0-6.47,1.85-6.47,5.57a9.62,9.62,0,0,1,6.9-2.48c6.52,0,10.8,4.47,10.8,11,0,7.19-5.23,11.76-13.08,11.76-9.42,0-15.13-6.57-15.13-16.8,0-10.61,6.42-17.51,16.32-17.51A23.31,23.31,0,0,1,56.41,459.07Z"/><path class="cls-49" d="M39.51,478.14c0,2,1.09,3,3.28,3s3.24-1,3.24-3-1.05-2.95-3.19-2.95S39.51,476.14,39.51,478.14Zm16.37-19.61-4.19,7.71A10.25,10.25,0,0,0,45,464.05c-4.29,0-6.47,1.86-6.47,5.57a9.58,9.58,0,0,1,6.9-2.47c6.51,0,10.8,4.47,10.8,11,0,7.18-5.24,11.75-13.09,11.75-9.42,0-15.13-6.57-15.13-16.8,0-10.61,6.42-17.51,16.32-17.51A23.38,23.38,0,0,1,55.88,458.53Z"/><path class="cls-50" d="M39,477.6c0,2,1.1,3,3.28,3s3.24-1,3.24-3.05-1.05-2.95-3.19-2.95S39,475.6,39,477.6ZM55.34,458l-4.19,7.7a10.23,10.23,0,0,0-6.66-2.18c-4.28,0-6.47,1.85-6.47,5.56a9.6,9.6,0,0,1,6.9-2.47c6.52,0,10.8,4.47,10.8,11,0,7.19-5.23,11.75-13.09,11.75-9.42,0-15.13-6.56-15.13-16.79,0-10.61,6.43-17.51,16.32-17.51A23.32,23.32,0,0,1,55.34,458Z"/><path class="cls-51" d="M38.43,477.07q0,3,3.29,3c2.14,0,3.23-1,3.23-3s-1-2.95-3.18-2.95S38.43,475.07,38.43,477.07ZM54.8,457.46l-4.18,7.71A10.2,10.2,0,0,0,44,463c-4.28,0-6.47,1.86-6.47,5.57a9.62,9.62,0,0,1,6.9-2.48c6.52,0,10.8,4.48,10.8,11,0,7.18-5.23,11.75-13.08,11.75C32.68,488.82,27,482.25,27,472c0-10.61,6.42-17.51,16.32-17.51A23.31,23.31,0,0,1,54.8,457.46Z"/><path class="cls-52" d="M37.9,476.53q0,3,3.28,3c2.14,0,3.24-1,3.24-3s-1.05-3-3.19-3S37.9,474.53,37.9,476.53Zm16.37-19.61-4.19,7.71a10.23,10.23,0,0,0-6.66-2.19c-4.28,0-6.47,1.86-6.47,5.57a9.58,9.58,0,0,1,6.9-2.47c6.52,0,10.8,4.47,10.8,11,0,7.18-5.24,11.75-13.09,11.75-9.42,0-15.13-6.56-15.13-16.79,0-10.62,6.42-17.52,16.32-17.52A23.46,23.46,0,0,1,54.27,456.92Z"/><path class="cls-53" d="M37.36,476q0,3,3.29,3c2.14,0,3.23-1,3.23-3S42.83,473,40.69,473,37.36,474,37.36,476Zm16.37-19.6-4.19,7.71a10.16,10.16,0,0,0-6.66-2.19c-4.28,0-6.47,1.85-6.47,5.56a9.64,9.64,0,0,1,6.9-2.47c6.52,0,10.8,4.47,10.8,11,0,7.19-5.23,11.76-13.08,11.76-9.43,0-15.14-6.57-15.14-16.8,0-10.61,6.43-17.51,16.33-17.51A23.31,23.31,0,0,1,53.73,456.39Z"/><path class="cls-54" d="M36.83,475.46c0,2,1.09,3,3.28,3s3.24-1,3.24-3-1.05-3-3.19-3S36.83,473.46,36.83,475.46ZM53.2,455.85,49,463.56a10.25,10.25,0,0,0-6.66-2.19c-4.29,0-6.48,1.86-6.48,5.57a9.62,9.62,0,0,1,6.9-2.48c6.52,0,10.81,4.48,10.81,11,0,7.18-5.24,11.75-13.09,11.75-9.42,0-15.13-6.57-15.13-16.8,0-10.61,6.42-17.51,16.32-17.51A23.38,23.38,0,0,1,53.2,455.85Z"/><path class="cls-55" d="M36.29,474.92q0,3,3.28,3c2.14,0,3.24-1,3.24-3.05s-1.05-2.95-3.19-2.95S36.29,472.92,36.29,474.92Zm16.37-19.6L48.47,463a10.23,10.23,0,0,0-6.66-2.18c-4.28,0-6.47,1.85-6.47,5.56a9.6,9.6,0,0,1,6.9-2.47c6.52,0,10.8,4.47,10.8,11,0,7.19-5.23,11.75-13.09,11.75-9.42,0-15.13-6.56-15.13-16.79,0-10.62,6.43-17.52,16.32-17.52A23.32,23.32,0,0,1,52.66,455.32Z"/><path class="cls-56" d="M35.75,474.38q0,3,3.29,3c2.14,0,3.23-1,3.23-3s-1-2.95-3.19-2.95S35.75,472.39,35.75,474.38Zm16.37-19.6-4.18,7.71a10.2,10.2,0,0,0-6.67-2.19c-4.28,0-6.47,1.85-6.47,5.57a9.62,9.62,0,0,1,6.9-2.48c6.52,0,10.8,4.47,10.8,11,0,7.19-5.23,11.76-13.08,11.76-9.42,0-15.13-6.57-15.13-16.8,0-10.61,6.42-17.51,16.32-17.51A23.31,23.31,0,0,1,52.12,454.78Z"/><path d="M35.22,473.85q0,3,3.28,3c2.14,0,3.24-1,3.24-3.05s-1.05-2.95-3.19-2.95S35.22,471.85,35.22,473.85Zm16.37-19.61L47.4,462a10.25,10.25,0,0,0-6.66-2.19c-4.29,0-6.47,1.86-6.47,5.57a9.58,9.58,0,0,1,6.9-2.47c6.52,0,10.8,4.47,10.8,11,0,7.18-5.24,11.75-13.09,11.75-9.42,0-15.13-6.57-15.13-16.8,0-10.61,6.42-17.51,16.32-17.51A23.38,23.38,0,0,1,51.59,454.24Z"/></g><text class="cls-57" transform="translate(21.77 485.13)">6</text></g><circle class="cls-1" cx="37.5" cy="37.5" r="37.5" transform="translate(-5.6 68.41) rotate(-80.64)"/><g class="cls-63"><g class="cls-5"><path class="cls-6" d="M60.4,82.41V57.76H54.59V49.05H71.44V82.41Z"/><path class="cls-7" d="M59.86,81.87V57.22h-5.8V48.51H70.9V81.87Z"/><path class="cls-8" d="M59.32,81.33V56.69h-5.8V48H70.36V81.33Z"/><path class="cls-9" d="M58.79,80.8V56.15H53V47.44H69.83V80.8Z"/><path class="cls-10" d="M58.25,80.26V55.61h-5.8v-8.7H69.29V80.26Z"/><path class="cls-11" d="M57.72,79.73V55.08H51.91V46.37H68.76V79.73Z"/><path class="cls-12" d="M57.18,79.19V54.54H51.37V45.83H68.22V79.19Z"/><path class="cls-13" d="M56.64,78.65V54h-5.8V45.3H67.68V78.65Z"/><path class="cls-14" d="M56.11,78.12V53.47H50.3V44.76H67.15V78.12Z"/><path class="cls-15" d="M55.57,77.58V52.93h-5.8V44.22H66.61V77.58Z"/><path class="cls-16" d="M55,77.05V52.4H49.23V43.69H66.07V77.05Z"/><path class="cls-17" d="M54.5,76.51V51.86H48.69V43.15H65.54V76.51Z"/><path class="cls-18" d="M54,76V51.32h-5.8v-8.7H65V76Z"/><path class="cls-19" d="M53.43,75.44V50.79H47.62V42.08H64.47V75.44Z"/><path class="cls-20" d="M52.89,74.9V50.25H47.08V41.54H63.93V74.9Z"/><path class="cls-21" d="M52.35,74.36V49.72h-5.8V41H63.39V74.36Z"/><path class="cls-22" d="M51.82,73.83V49.18H46V40.47H62.86V73.83Z"/><path class="cls-23" d="M51.28,73.29V48.64h-5.8v-8.7H62.32V73.29Z"/><path class="cls-24" d="M50.75,72.76V48.11H44.94V39.4H61.79V72.76Z"/><path class="cls-25" d="M50.21,72.22V47.57H44.4V38.86H61.25V72.22Z"/><path class="cls-26" d="M49.67,71.68V47h-5.8v-8.7H60.71V71.68Z"/><path class="cls-27" d="M49.14,71.15V46.5H43.33V37.79H60.18V71.15Z"/><path class="cls-28" d="M48.6,70.61V46H42.8V37.25H59.64V70.61Z"/><path class="cls-29" d="M48.06,70.08V45.43h-5.8V36.72H59.1V70.08Z"/><path class="cls-30" d="M47.53,69.54V44.89H41.72V36.18H58.57V69.54Z"/><path class="cls-31" d="M47,69V44.35h-5.8v-8.7H58V69Z"/><path class="cls-32" d="M46.46,68.47V43.82H40.65V35.11H57.5V68.47Z"/><path class="cls-33" d="M45.92,67.93V43.28H40.11V34.57H57V67.93Z"/><path class="cls-34" d="M45.38,67.39V42.75h-5.8V34H56.42V67.39Z"/><path class="cls-35" d="M44.85,66.86V42.21H39V33.5H55.89V66.86Z"/><path class="cls-36" d="M44.31,66.32V41.67h-5.8V33H55.35V66.32Z"/><path class="cls-37" d="M43.78,65.79V41.14H38V32.43H54.82V65.79Z"/><path class="cls-38" d="M43.24,65.25V40.6H37.43V31.89H54.28V65.25Z"/><path class="cls-39" d="M42.7,64.71V40.06H36.9v-8.7H53.74V64.71Z"/><path class="cls-40" d="M42.17,64.18V39.53H36.36V30.82H53.21V64.18Z"/><path class="cls-41" d="M41.63,63.64V39h-5.8V30.28H52.67V63.64Z"/><path class="cls-42" d="M41.09,63.1V38.46h-5.8V29.75H52.13V63.1Z"/><path class="cls-43" d="M40.56,62.57V37.92H34.75V29.21H51.6V62.57Z"/><path class="cls-44" d="M40,62V37.38h-5.8v-8.7H51.06V62Z"/><path class="cls-45" d="M39.49,61.5V36.85H33.68V28.14H50.53V61.5Z"/><path class="cls-46" d="M39,61V36.31H33.14V27.6H50V61Z"/><path class="cls-47" d="M38.41,60.42V35.77h-5.8v-8.7H49.45V60.42Z"/><path class="cls-48" d="M37.88,59.89V35.24H32.07V26.53H48.92V59.89Z"/><path class="cls-49" d="M37.34,59.35V34.7h-5.8V26H48.38V59.35Z"/><path class="cls-50" d="M36.81,58.82V34.17H31V25.46H47.84V58.82Z"/><path class="cls-51" d="M36.27,58.28V33.63H30.46V24.92H47.31V58.28Z"/><path class="cls-52" d="M35.73,57.74V33.09h-5.8v-8.7H46.77V57.74Z"/><path class="cls-53" d="M35.2,57.21V32.56H29.39V23.85H46.24V57.21Z"/><path class="cls-54" d="M34.66,56.67V32h-5.8V23.31H45.7V56.67Z"/><path class="cls-55" d="M34.12,56.13V31.49h-5.8V22.78H45.16V56.13Z"/><path class="cls-56" d="M33.59,55.6V31H27.78V22.24H44.63V55.6Z"/><path d="M33.05,55.06V30.41h-5.8v-8.7H44.09V55.06Z"/></g><text class="cls-57" transform="translate(27.56 55.06)">1</text></g><circle class="cls-1" cx="37.5" cy="123.51" r="37.5" transform="translate(-90.47 140.44) rotate(-80.64)"/><g class="cls-64"><g class="cls-5"><path class="cls-6" d="M77.74,143.63c0,3.85-2.76,7.56-6.47,11.28l-5,5h12v8.47h-26v-6.9l11.56-12c1.33-1.43,2.43-3.09,2.43-4.23s-.76-1.77-2.19-1.77c-2.52,0-5.81,1.67-9,4.29l-4.09-8c4.76-3.28,9.61-5.23,14.84-5.23C72.56,134.59,77.74,138.2,77.74,143.63Z"/><path class="cls-7" d="M77.21,143.09c0,3.86-2.76,7.57-6.48,11.28l-5,5h12v8.47h-26V161l11.57-12c1.33-1.42,2.42-3.09,2.42-4.23S64.88,143,63.45,143c-2.52,0-5.8,1.66-9,4.28l-4.09-7.95c4.76-3.28,9.61-5.23,14.85-5.23C72,134.05,77.21,137.67,77.21,143.09Z"/><path class="cls-8" d="M76.67,142.56c0,3.85-2.76,7.56-6.47,11.27l-5,5h12v8.47h-26v-6.9l11.56-12c1.33-1.43,2.43-3.09,2.43-4.24s-.77-1.76-2.19-1.76c-2.52,0-5.81,1.67-9,4.29l-4.1-7.95c4.76-3.28,9.62-5.24,14.85-5.24C71.48,133.51,76.67,137.13,76.67,142.56Z"/><path class="cls-9" d="M76.13,142c0,3.85-2.76,7.57-6.47,11.28l-5,5h12v8.47h-26v-6.9l11.56-12c1.34-1.43,2.43-3.09,2.43-4.23s-.76-1.76-2.19-1.76c-2.52,0-5.8,1.66-9,4.28l-4.09-7.95C54,134.93,58.86,133,64.09,133,71,133,76.13,136.59,76.13,142Z"/><path class="cls-10" d="M75.6,141.48c0,3.86-2.76,7.57-6.47,11.28l-5,5h12v8.47H50v-6.89l11.57-12c1.33-1.43,2.42-3.1,2.42-4.24s-.76-1.76-2.18-1.76c-2.53,0-5.81,1.67-9.05,4.28l-4.09-7.94c4.76-3.29,9.61-5.24,14.85-5.24C70.41,132.44,75.6,136.06,75.6,141.48Z"/><path class="cls-11" d="M75.06,141c0,3.85-2.76,7.56-6.47,11.27l-5,5.05h12v8.47h-26v-6.9l11.56-12c1.33-1.43,2.43-3.09,2.43-4.24s-.76-1.76-2.19-1.76c-2.52,0-5.81,1.67-9,4.29l-4.09-8c4.75-3.28,9.61-5.23,14.84-5.23C69.87,131.91,75.06,135.52,75.06,141Z"/><path class="cls-12" d="M74.53,140.41c0,3.86-2.77,7.57-6.48,11.28l-5,5H75v8.47H49v-6.9l11.57-12C61.87,144.84,63,143.17,63,142s-.76-1.76-2.19-1.76c-2.52,0-5.8,1.66-9,4.28l-4.09-8c4.76-3.28,9.61-5.23,14.85-5.23C69.34,131.37,74.53,135,74.53,140.41Z"/><path class="cls-13" d="M74,139.87c0,3.86-2.76,7.57-6.47,11.28l-5,5h12v8.47h-26v-6.9l11.56-12c1.33-1.43,2.43-3.1,2.43-4.24s-.77-1.76-2.19-1.76c-2.53,0-5.81,1.67-9,4.28l-4.1-7.94c4.76-3.29,9.62-5.24,14.85-5.24C68.8,130.83,74,134.45,74,139.87Z"/><path class="cls-14" d="M73.45,139.34c0,3.85-2.76,7.56-6.47,11.28l-5,5h12v8.47h-26v-6.9l11.56-12c1.34-1.43,2.43-3.09,2.43-4.23s-.76-1.76-2.19-1.76c-2.52,0-5.81,1.66-9,4.28l-4.09-7.95c4.76-3.28,9.61-5.23,14.84-5.23C68.27,130.3,73.45,133.91,73.45,139.34Z"/><path class="cls-15" d="M72.92,138.8c0,3.86-2.76,7.57-6.48,11.28l-5,5h12v8.47h-26v-6.9l11.57-12c1.33-1.43,2.42-3.1,2.42-4.24s-.76-1.76-2.19-1.76c-2.52,0-5.8,1.66-9,4.28L46,135c4.76-3.29,9.61-5.24,14.85-5.24C67.73,129.76,72.92,133.38,72.92,138.8Z"/><path class="cls-16" d="M72.38,138.27c0,3.85-2.76,7.56-6.47,11.27l-5,5.05h12v8.47h-26v-6.9l11.56-12c1.33-1.43,2.43-3.09,2.43-4.24s-.76-1.76-2.19-1.76c-2.52,0-5.81,1.67-9,4.29l-4.1-7.95c4.76-3.28,9.62-5.24,14.85-5.24C67.19,129.22,72.38,132.84,72.38,138.27Z"/><path class="cls-17" d="M71.84,137.73c0,3.85-2.76,7.57-6.47,11.28l-5,5h12v8.47h-26v-6.9l11.56-12c1.34-1.42,2.43-3.09,2.43-4.23s-.76-1.76-2.19-1.76c-2.52,0-5.8,1.66-9,4.28l-4.09-8c4.76-3.28,9.61-5.23,14.85-5.23C66.66,128.69,71.84,132.31,71.84,137.73Z"/><path class="cls-18" d="M71.31,137.19c0,3.86-2.76,7.57-6.47,11.28l-5.05,5.05h12V162h-26v-6.9l11.57-12c1.33-1.43,2.42-3.1,2.42-4.24s-.76-1.76-2.18-1.76c-2.53,0-5.81,1.67-9.05,4.28l-4.09-7.94c4.76-3.29,9.61-5.24,14.85-5.24C66.12,128.15,71.31,131.77,71.31,137.19Z"/><path class="cls-19" d="M70.77,136.66c0,3.85-2.76,7.56-6.47,11.28l-5,5h12v8.47h-26v-6.9l11.56-12c1.33-1.43,2.43-3.09,2.43-4.23s-.76-1.77-2.19-1.77c-2.52,0-5.81,1.67-9,4.29l-4.09-8c4.76-3.28,9.61-5.23,14.84-5.23C65.59,127.62,70.77,131.23,70.77,136.66Z"/><path class="cls-20" d="M70.24,136.12c0,3.86-2.76,7.57-6.48,11.28l-5,5h12v8.47h-26V154l11.57-12c1.33-1.42,2.42-3.09,2.42-4.23S57.91,136,56.48,136c-2.52,0-5.8,1.66-9,4.28l-4.09-7.95c4.76-3.28,9.61-5.23,14.85-5.23C65.05,127.08,70.24,130.7,70.24,136.12Z"/><path class="cls-21" d="M69.7,135.59c0,3.85-2.76,7.56-6.47,11.27l-5,5h12v8.47h-26v-6.9l11.56-12c1.33-1.43,2.43-3.1,2.43-4.24s-.77-1.76-2.19-1.76c-2.52,0-5.81,1.67-9,4.29l-4.1-7.95c4.76-3.28,9.62-5.24,14.85-5.24C64.51,126.54,69.7,130.16,69.7,135.59Z"/><path class="cls-22" d="M69.16,135.05c0,3.85-2.76,7.57-6.47,11.28l-5,5h12v8.47h-26v-6.9l11.56-12c1.34-1.43,2.43-3.09,2.43-4.23s-.76-1.76-2.19-1.76c-2.52,0-5.8,1.66-9,4.28l-4.09-7.95C47,128,51.89,126,57.12,126,64,126,69.16,129.62,69.16,135.05Z"/><path class="cls-23" d="M68.63,134.51c0,3.86-2.76,7.57-6.47,11.28l-5,5h12v8.47h-26v-6.89l11.57-12c1.33-1.43,2.42-3.1,2.42-4.24s-.76-1.76-2.18-1.76c-2.53,0-5.81,1.67-9.05,4.28l-4.09-7.94c4.76-3.29,9.61-5.24,14.85-5.24C63.44,125.47,68.63,129.09,68.63,134.51Z"/><path class="cls-24" d="M68.09,134c0,3.85-2.76,7.56-6.47,11.27l-5,5.05h12v8.47h-26v-6.9l11.56-12c1.33-1.43,2.43-3.09,2.43-4.24s-.76-1.76-2.19-1.76c-2.52,0-5.81,1.67-9,4.29l-4.09-8c4.75-3.28,9.61-5.23,14.84-5.23C62.9,124.94,68.09,128.55,68.09,134Z"/><path class="cls-25" d="M67.56,133.44c0,3.86-2.77,7.57-6.48,11.28l-5,5H68v8.47H42v-6.9l11.57-12c1.33-1.42,2.42-3.09,2.42-4.23s-.76-1.76-2.19-1.76c-2.52,0-5.8,1.66-9,4.28l-4.09-8c4.76-3.28,9.61-5.23,14.85-5.23C62.37,124.4,67.56,128,67.56,133.44Z"/><path class="cls-26" d="M67,132.9c0,3.86-2.76,7.57-6.47,11.28l-5,5h12v8.47h-26v-6.9l11.56-12c1.33-1.43,2.43-3.1,2.43-4.24s-.77-1.76-2.19-1.76c-2.53,0-5.81,1.67-9,4.28l-4.1-7.94c4.76-3.29,9.62-5.24,14.85-5.24C61.83,123.86,67,127.48,67,132.9Z"/><path class="cls-27" d="M66.48,132.37c0,3.85-2.76,7.56-6.47,11.28l-5,5H67v8.47h-26v-6.9l11.56-12c1.34-1.43,2.43-3.09,2.43-4.23s-.76-1.76-2.19-1.76c-2.52,0-5.81,1.66-9,4.28l-4.09-7.95c4.76-3.28,9.61-5.23,14.84-5.23C61.3,123.33,66.48,126.94,66.48,132.37Z"/><path class="cls-28" d="M66,131.83c0,3.86-2.76,7.57-6.48,11.28l-5,5h12v8.47h-26v-6.9l11.57-12c1.33-1.42,2.42-3.09,2.42-4.23s-.76-1.76-2.19-1.76c-2.52,0-5.8,1.66-9,4.28L39.06,128c4.76-3.29,9.61-5.24,14.85-5.24C60.76,122.79,66,126.41,66,131.83Z"/><path class="cls-29" d="M65.41,131.3c0,3.85-2.76,7.56-6.47,11.27l-5,5.05h12v8.47h-26v-6.9l11.56-12c1.33-1.43,2.43-3.09,2.43-4.24s-.76-1.76-2.19-1.76c-2.52,0-5.81,1.67-9,4.29l-4.1-8c4.76-3.28,9.62-5.24,14.85-5.24C60.22,122.25,65.41,125.87,65.41,131.3Z"/><path class="cls-30" d="M64.87,130.76c0,3.85-2.76,7.57-6.47,11.28l-5,5h12v8.47h-26v-6.9l11.56-12c1.34-1.42,2.43-3.09,2.43-4.23s-.76-1.76-2.19-1.76c-2.52,0-5.8,1.66-9,4.28L38,127c4.76-3.28,9.61-5.23,14.85-5.23C59.69,121.72,64.87,125.33,64.87,130.76Z"/><path class="cls-31" d="M64.34,130.22c0,3.86-2.76,7.57-6.47,11.28l-5,5.05h12V155h-26v-6.9l11.57-12c1.33-1.43,2.42-3.1,2.42-4.24s-.76-1.76-2.18-1.76c-2.53,0-5.81,1.67-9.05,4.28l-4.09-7.94c4.76-3.29,9.61-5.24,14.85-5.24C59.15,121.18,64.34,124.8,64.34,130.22Z"/><path class="cls-32" d="M63.8,129.69c0,3.85-2.76,7.56-6.47,11.27l-5,5h12v8.47h-26v-6.9l11.56-12c1.33-1.43,2.43-3.09,2.43-4.23s-.76-1.77-2.19-1.77c-2.52,0-5.81,1.67-9,4.29l-4.09-8c4.75-3.28,9.61-5.23,14.84-5.23C58.62,120.65,63.8,124.26,63.8,129.69Z"/><path class="cls-33" d="M63.27,129.15c0,3.86-2.76,7.57-6.48,11.28l-5,5h12v8.47h-26V147l11.57-12c1.33-1.42,2.42-3.09,2.42-4.23S50.94,129,49.51,129c-2.52,0-5.8,1.66-9,4.28l-4.09-7.95c4.76-3.28,9.61-5.23,14.85-5.23C58.08,120.11,63.27,123.73,63.27,129.15Z"/><path class="cls-34" d="M62.73,128.61c0,3.86-2.76,7.57-6.47,11.28l-5,5.05h12v8.47h-26v-6.9l11.56-12c1.33-1.43,2.43-3.1,2.43-4.24s-.77-1.76-2.19-1.76c-2.52,0-5.81,1.67-9,4.29l-4.1-7.95c4.76-3.29,9.62-5.24,14.85-5.24C57.54,119.57,62.73,123.19,62.73,128.61Z"/><path class="cls-35" d="M62.19,128.08c0,3.85-2.76,7.57-6.47,11.28l-5,5h12v8.47h-26V146l11.56-12c1.34-1.43,2.43-3.09,2.43-4.23s-.76-1.76-2.19-1.76c-2.52,0-5.8,1.66-9,4.28l-4.09-8C40.07,121,44.92,119,50.15,119,57,119,62.19,122.65,62.19,128.08Z"/><path class="cls-36" d="M61.66,127.54c0,3.86-2.76,7.57-6.47,11.28l-5,5h12v8.47h-26v-6.9l11.57-12c1.33-1.43,2.42-3.1,2.42-4.24s-.76-1.76-2.18-1.76c-2.53,0-5.81,1.67-9,4.28l-4.09-7.94c4.76-3.29,9.61-5.24,14.85-5.24C56.47,118.5,61.66,122.12,61.66,127.54Z"/><path class="cls-37" d="M61.12,127c0,3.85-2.76,7.56-6.47,11.27l-5,5.05h12v8.47h-26v-6.9l11.56-12c1.33-1.43,2.43-3.09,2.43-4.24s-.76-1.76-2.19-1.76c-2.52,0-5.81,1.67-9,4.29l-4.09-8C39,119.92,43.85,118,49.08,118,55.93,118,61.12,121.58,61.12,127Z"/><path class="cls-38" d="M60.58,126.47c0,3.85-2.76,7.57-6.47,11.28l-5,5h12v8.47H35v-6.9l11.56-12c1.34-1.42,2.43-3.09,2.43-4.23s-.76-1.76-2.19-1.76c-2.52,0-5.8,1.66-9,4.28l-4.09-8c4.76-3.28,9.61-5.23,14.85-5.23C55.4,117.43,60.58,121.05,60.58,126.47Z"/><path class="cls-39" d="M60.05,125.93c0,3.86-2.76,7.57-6.47,11.28l-5,5h12v8.47h-26v-6.9l11.56-12c1.33-1.43,2.43-3.1,2.43-4.24s-.77-1.76-2.19-1.76c-2.53,0-5.81,1.67-9,4.28l-4.1-7.94c4.76-3.29,9.62-5.24,14.85-5.24C54.86,116.89,60.05,120.51,60.05,125.93Z"/><path class="cls-40" d="M59.51,125.4c0,3.85-2.76,7.56-6.47,11.28l-5,5H60v8.47H34v-6.9l11.56-12C46.86,129.82,48,128.16,48,127s-.76-1.76-2.19-1.76c-2.52,0-5.81,1.66-9,4.28l-4.09-7.95c4.76-3.28,9.61-5.23,14.84-5.23C54.33,116.36,59.51,120,59.51,125.4Z"/><path class="cls-41" d="M59,124.86c0,3.86-2.76,7.57-6.48,11.28l-5,5h12v8.47h-26v-6.9l11.57-12c1.33-1.42,2.42-3.09,2.42-4.23s-.76-1.76-2.19-1.76c-2.52,0-5.8,1.66-9,4.28l-4.09-7.94c4.76-3.29,9.61-5.24,14.85-5.24C53.79,115.82,59,119.44,59,124.86Z"/><path class="cls-42" d="M58.44,124.33c0,3.85-2.76,7.56-6.47,11.27l-5,5.05h12v8.47h-26v-6.9l11.56-12c1.33-1.43,2.43-3.09,2.43-4.24s-.76-1.76-2.19-1.76c-2.52,0-5.81,1.67-9,4.29l-4.1-8c4.76-3.28,9.62-5.24,14.85-5.24C53.25,115.28,58.44,118.9,58.44,124.33Z"/><path class="cls-43" d="M57.9,123.79c0,3.85-2.76,7.57-6.47,11.28l-5,5h12v8.47h-26v-6.9l11.56-12c1.34-1.42,2.43-3.09,2.43-4.23s-.76-1.76-2.19-1.76c-2.52,0-5.8,1.66-9,4.28L31,120c4.76-3.28,9.61-5.23,14.85-5.23C52.72,114.75,57.9,118.36,57.9,123.79Z"/><path class="cls-44" d="M57.37,123.25c0,3.86-2.76,7.57-6.47,11.28l-5,5.05h12v8.47h-26v-6.9l11.57-12c1.33-1.43,2.42-3.1,2.42-4.24s-.76-1.76-2.18-1.76c-2.53,0-5.81,1.67-9,4.28l-4.09-7.94c4.76-3.29,9.61-5.24,14.85-5.24C52.18,114.21,57.37,117.83,57.37,123.25Z"/><path class="cls-45" d="M56.83,122.72c0,3.85-2.76,7.56-6.47,11.27l-5,5h12v8.47h-26v-6.9l11.56-12c1.33-1.43,2.43-3.09,2.43-4.23s-.76-1.77-2.19-1.77c-2.52,0-5.81,1.67-9,4.29l-4.09-8c4.75-3.28,9.61-5.23,14.84-5.23C51.64,113.68,56.83,117.29,56.83,122.72Z"/><path class="cls-46" d="M56.3,122.18c0,3.86-2.76,7.57-6.48,11.28l-5,5h12V147h-26v-6.9l11.57-12c1.33-1.42,2.42-3.09,2.42-4.23S44,122,42.54,122c-2.52,0-5.8,1.66-9,4.28l-4.09-7.95c4.76-3.28,9.61-5.23,14.85-5.23C51.11,113.14,56.3,116.76,56.3,122.18Z"/><path class="cls-47" d="M55.76,121.64c0,3.86-2.76,7.57-6.47,11.28l-5,5.05h12v8.47h-26v-6.9l11.56-12c1.33-1.43,2.43-3.1,2.43-4.24s-.77-1.76-2.19-1.76c-2.53,0-5.81,1.67-9,4.28l-4.1-7.94c4.76-3.29,9.62-5.24,14.85-5.24C50.57,112.6,55.76,116.22,55.76,121.64Z"/><path class="cls-48" d="M55.22,121.11c0,3.85-2.76,7.56-6.47,11.28l-5,5h12v8.47h-26V139l11.56-12c1.34-1.43,2.43-3.09,2.43-4.23S42.9,121,41.47,121c-2.52,0-5.8,1.66-9,4.28l-4.09-8c4.76-3.28,9.61-5.23,14.84-5.23C50,112.07,55.22,115.68,55.22,121.11Z"/><path class="cls-49" d="M54.69,120.57c0,3.86-2.76,7.57-6.48,11.28l-5,5h12v8.47h-26v-6.9l11.57-12c1.33-1.43,2.42-3.1,2.42-4.24s-.76-1.76-2.19-1.76c-2.52,0-5.8,1.67-9,4.28l-4.09-7.94c4.76-3.29,9.61-5.24,14.85-5.24C49.5,111.53,54.69,115.15,54.69,120.57Z"/><path class="cls-50" d="M54.15,120c0,3.85-2.76,7.56-6.47,11.27l-5,5.05h12v8.47h-26v-6.9l11.56-12c1.33-1.43,2.43-3.09,2.43-4.24s-.76-1.76-2.19-1.76c-2.52,0-5.81,1.67-9,4.29l-4.09-8C32,113,36.88,111,42.11,111,49,111,54.15,114.61,54.15,120Z"/><path class="cls-51" d="M53.61,119.5c0,3.85-2.76,7.57-6.47,11.28l-5,5h12v8.47h-26v-6.9l11.56-12c1.34-1.42,2.43-3.09,2.43-4.23s-.76-1.76-2.19-1.76c-2.52,0-5.8,1.66-9,4.28l-4.09-8c4.76-3.28,9.61-5.23,14.85-5.23C48.43,110.46,53.61,114.08,53.61,119.5Z"/><path class="cls-52" d="M53.08,119c0,3.86-2.76,7.57-6.47,11.28l-5,5h12v8.47h-26v-6.9l11.56-12c1.33-1.43,2.43-3.1,2.43-4.24s-.77-1.76-2.19-1.76c-2.53,0-5.81,1.67-9,4.28l-4.1-7.94c4.76-3.29,9.62-5.24,14.85-5.24C47.89,109.92,53.08,113.54,53.08,119Z"/><path class="cls-53" d="M52.54,118.43c0,3.85-2.76,7.56-6.47,11.28l-5,5H53v8.47H27v-6.9l11.56-12c1.33-1.43,2.43-3.09,2.43-4.23s-.76-1.76-2.19-1.76c-2.52,0-5.81,1.66-9,4.28l-4.09-7.95c4.76-3.28,9.61-5.23,14.84-5.23C47.36,109.39,52.54,113,52.54,118.43Z"/><path class="cls-54" d="M52,117.89c0,3.86-2.76,7.57-6.48,11.28l-5,5h12v8.47h-26v-6.9l11.57-12c1.33-1.42,2.42-3.09,2.42-4.23s-.76-1.76-2.19-1.76c-2.52,0-5.8,1.66-9,4.28l-4.09-8c4.76-3.28,9.61-5.23,14.85-5.23C46.82,108.85,52,112.47,52,117.89Z"/><path class="cls-55" d="M51.47,117.36c0,3.85-2.76,7.56-6.47,11.27l-5,5.05H52v8.47h-26v-6.9l11.56-12c1.33-1.43,2.43-3.09,2.43-4.24s-.76-1.76-2.19-1.76c-2.52,0-5.81,1.67-9,4.29l-4.1-8c4.76-3.28,9.62-5.24,14.85-5.24C46.28,108.31,51.47,111.93,51.47,117.36Z"/><path class="cls-56" d="M50.93,116.82c0,3.85-2.76,7.57-6.47,11.28l-5,5h12v8.47h-26v-6.9l11.56-12c1.34-1.43,2.43-3.09,2.43-4.23s-.76-1.76-2.19-1.76c-2.52,0-5.8,1.66-9,4.28L24.05,113c4.76-3.28,9.61-5.23,14.85-5.23C45.75,107.78,50.93,111.39,50.93,116.82Z"/><path d="M50.4,116.28c0,3.86-2.76,7.57-6.47,11.28l-5,5.05h12v8.47h-26v-6.9l11.57-12c1.33-1.43,2.42-3.1,2.42-4.24s-.76-1.76-2.18-1.76c-2.53,0-5.81,1.67-9,4.28l-4.09-7.94c4.76-3.29,9.61-5.24,14.85-5.24C45.21,107.24,50.4,110.86,50.4,116.28Z"/></g><text class="cls-57" transform="translate(23.04 141.07)">2</text></g></g></g></svg>